<svg width="25" height="24" viewBox="0 0 25 24" fill="none" xmlns="http://www.w3.org/2000/svg">
<path d="M12.4253 0C13.5299 0 14.4253 0.895431 14.4253 2C14.4253 2.09661 14.4161 2.19122 14.4028 2.28418C16.8879 3.01103 18.8385 5.07471 19.3433 7.72461L20.3638 13.085C20.3698 13.1163 20.3822 13.1466 20.3989 13.1738L22.4009 16.4277C23.6309 18.4265 22.1931 21 19.8462 21H15.4253C15.4253 22.6569 14.0821 24 12.4253 24C10.7687 23.9997 9.42529 22.6567 9.42529 21H5.00439C2.65781 20.9996 1.21999 18.4264 2.44971 16.4277L4.45166 13.1738C4.46842 13.1466 4.48081 13.1164 4.48682 13.085L5.50732 7.72461C6.01202 5.07498 7.96304 3.01126 10.4478 2.28418C10.4345 2.19127 10.4253 2.09657 10.4253 2C10.4253 0.895589 11.3209 0.000256112 12.4253 0ZM11.4253 21C11.4253 21.5521 11.8732 21.9997 12.4253 22C12.9776 22 13.4253 21.5523 13.4253 21H11.4253ZM12.4253 4C10.0046 4.00023 7.9252 5.72068 7.47217 8.09863L6.45068 13.459C6.39922 13.7291 6.29888 13.9875 6.15479 14.2217L4.15283 17.4756C3.74314 18.1417 4.22245 18.9996 5.00439 19H19.8462C20.6285 19 21.1078 18.1418 20.6978 17.4756L18.6958 14.2217C18.5518 13.9876 18.4513 13.729 18.3999 13.459L17.3784 8.09863C16.9253 5.72057 14.8462 4 12.4253 4Z" fill="#2E1914" fill-opacity="0.62"/>
</svg>
