<svg width="16" height="16" viewBox="0 0 16 16" fill="none" xmlns="http://www.w3.org/2000/svg">
<path d="M7.3335 3.00001C7.3335 2.63182 7.63197 2.33334 8.00016 2.33334C8.36835 2.33334 8.66683 2.63182 8.66683 3.00001V7.33334H12.8662C13.2343 7.33334 13.5328 7.63182 13.5328 8.00001C13.5328 8.3682 13.2343 8.66668 12.8662 8.66668H8.66683V12.866C8.66683 13.2342 8.36835 13.5327 8.00016 13.5327C7.63197 13.5327 7.3335 13.2342 7.3335 12.866V8.66668H3.00016C2.63197 8.66668 2.3335 8.3682 2.3335 8.00001C2.3335 7.63182 2.63197 7.33334 3.00016 7.33334H7.3335V3.00001Z" fill="#22281B"/>
</svg>
