<svg width="16" height="16" viewBox="0 0 16 16" fill="none" xmlns="http://www.w3.org/2000/svg">
<path d="M6.33222 6.62505C6.30925 6.25758 5.99274 5.9783 5.62527 6.00127C5.25779 6.02424 4.97852 6.34075 5.00148 6.70822L5.33482 12.0416C5.35778 12.409 5.6743 12.6883 6.04177 12.6653C6.40924 12.6424 6.68852 12.3259 6.66555 11.9584L6.33222 6.62505Z" fill="#22281B"/>
<path d="M10.9989 6.70822C11.0219 6.34075 10.7426 6.02424 10.3751 6.00127C10.0076 5.9783 9.69112 6.25758 9.66815 6.62505L9.33482 11.9584C9.31185 12.3259 9.59113 12.6424 9.9586 12.6653C10.3261 12.6883 10.6426 12.409 10.6656 12.0416L10.9989 6.70822Z" fill="#22281B"/>
<path d="M8.66685 6.66664C8.66685 6.29845 8.36838 5.99997 8.00019 5.99997C7.632 5.99997 7.33352 6.29845 7.33352 6.66664V12C7.33352 12.3682 7.632 12.6666 8.00019 12.6666C8.36838 12.6666 8.66685 12.3682 8.66685 12V6.66664Z" fill="#22281B"/>
<path fill-rule="evenodd" clip-rule="evenodd" d="M7.44113 0.666657H8.55919C8.91061 0.666646 9.21381 0.666636 9.46352 0.687038C9.72708 0.708572 9.98922 0.756116 10.2415 0.884645C10.6178 1.07639 10.9238 1.38235 11.1155 1.75868C11.244 2.01093 11.2916 2.27308 11.3131 2.53664C11.3314 2.76049 11.3333 3.0273 11.3335 3.33333H14.0002C14.3684 3.33333 14.6668 3.6318 14.6668 3.99999C14.6668 4.36818 14.3684 4.66666 14.0002 4.66666H13.2931L12.8514 11.7343C12.8198 12.24 12.7937 12.6585 12.745 12.999C12.6944 13.3536 12.6131 13.6777 12.4421 13.9799C12.176 14.4503 11.7732 14.8286 11.2872 15.0649C10.9749 15.2167 10.6464 15.2777 10.2893 15.3061C9.94637 15.3333 9.52712 15.3333 9.02043 15.3333H6.9799C6.4732 15.3333 6.05396 15.3333 5.71099 15.3061C5.35397 15.2777 5.02541 15.2167 4.71312 15.0649C4.2271 14.8286 3.82434 14.4503 3.55819 13.9799C3.38719 13.6777 3.30589 13.3536 3.25528 12.999C3.20667 12.6585 3.18052 12.24 3.14892 11.7343L2.70719 4.66666H2.00016C1.63197 4.66666 1.3335 4.36818 1.3335 3.99999C1.3335 3.6318 1.63197 3.33333 2.00016 3.33333H4.66685C4.66703 3.0273 4.66892 2.76049 4.68721 2.53664C4.70874 2.27308 4.75629 2.01093 4.88482 1.75868C5.07656 1.38235 5.38252 1.07639 5.75885 0.884645C6.0111 0.756116 6.27325 0.708572 6.53681 0.687038C6.78652 0.666636 7.08971 0.666646 7.44113 0.666657ZM9.98421 2.64522C9.99778 2.81131 9.99982 3.02326 10.0001 3.33333H6.00021C6.00051 3.02326 6.00254 2.81131 6.01611 2.64522C6.03091 2.46411 6.05603 2.39696 6.07283 2.364C6.13674 2.23856 6.23873 2.13657 6.36417 2.07265C6.39713 2.05586 6.46428 2.03074 6.64539 2.01594C6.83428 2.00051 7.08246 1.99999 7.46683 1.99999H8.5335C8.91787 1.99999 9.16605 2.00051 9.35494 2.01594C9.53605 2.03074 9.60319 2.05586 9.63616 2.07265C9.7616 2.13657 9.86358 2.23856 9.9275 2.364C9.9443 2.39696 9.96941 2.46411 9.98421 2.64522ZM4.04313 4.66666H11.9572L11.5223 11.6247C11.4886 12.1635 11.4653 12.5288 11.4251 12.8106C11.386 13.0845 11.3374 13.2248 11.2817 13.3233C11.1486 13.5585 10.9472 13.7476 10.7042 13.8658C10.6025 13.9153 10.4594 13.955 10.1836 13.9769C9.89979 13.9995 9.53381 14 8.99392 14H7.00641C6.46652 14 6.10053 13.9995 5.8167 13.9769C5.54096 13.955 5.39787 13.9153 5.29609 13.8658C5.05308 13.7476 4.8517 13.5585 4.71863 13.3233C4.6629 13.2248 4.61432 13.0845 4.57524 12.8106C4.535 12.5288 4.51168 12.1635 4.47801 11.6247L4.04313 4.66666Z" fill="#22281B"/>
</svg>
