<svg width="29" height="29" viewBox="0 0 29 29" fill="none" xmlns="http://www.w3.org/2000/svg">
<mask id="path-1-outside-1_59_249" maskUnits="userSpaceOnUse" x="0" y="0" width="29" height="29" fill="black">
<rect fill="white" width="29" height="29"/>
<path d="M2 14.7736C2 7.71895 7.71895 2 14.7736 2C21.8283 2 27.5473 7.71895 27.5473 14.7736C27.5473 21.8283 21.8283 27.5473 14.7736 27.5473C7.71895 27.5473 2 21.8283 2 14.7736Z"/>
</mask>
<path d="M2 14.7736C2 7.71895 7.71895 2 14.7736 2C21.8283 2 27.5473 7.71895 27.5473 14.7736C27.5473 21.8283 21.8283 27.5473 14.7736 27.5473C7.71895 27.5473 2 21.8283 2 14.7736Z" fill="#91B275"/>
<path d="M14.7736 27.5473V26.4828C8.30684 26.4828 3.06447 21.2404 3.06447 14.7736H2H0.935531C0.935531 22.4162 7.13106 28.6117 14.7736 28.6117V27.5473ZM27.5473 14.7736H26.4828C26.4828 21.2404 21.2404 26.4828 14.7736 26.4828V27.5473V28.6117C22.4162 28.6117 28.6117 22.4162 28.6117 14.7736H27.5473ZM14.7736 2V3.06447C21.2404 3.06447 26.4828 8.30684 26.4828 14.7736H27.5473H28.6117C28.6117 7.13106 22.4162 0.935531 14.7736 0.935531V2ZM14.7736 2V0.935531C7.13106 0.935531 0.935531 7.13106 0.935531 14.7736H2H3.06447C3.06447 8.30684 8.30684 3.06447 14.7736 3.06447V2Z" fill="#FFFBFA" mask="url(#path-1-outside-1_59_249)"/>
<path d="M20.0236 16.5234V18.8568C20.0236 19.1662 19.9007 19.4629 19.6819 19.6817C19.4631 19.9005 19.1664 20.0234 18.857 20.0234H10.6903C10.3809 20.0234 10.0841 19.9005 9.86534 19.6817C9.64655 19.4629 9.52364 19.1662 9.52364 18.8568V16.5234M11.857 13.6068L14.7736 16.5234M14.7736 16.5234L17.6903 13.6068M14.7736 16.5234V9.52344" stroke="#FFF9F8" stroke-width="1.5" stroke-linecap="round" stroke-linejoin="round"/>
</svg>
