<svg width="390" height="844" viewBox="0 0 390 844" fill="none" xmlns="http://www.w3.org/2000/svg">
<rect x="-116" y="-47" width="558" height="938" fill="#91C788"/>
<g clip-path="url(#clip0_2009_77)">
<path d="M405.107 -45.9652H-57.7317V849.081H405.107V-45.9652Z" fill="#EE8429"/>
<path d="M31.1913 566.883C68.5852 599.357 115.055 620.247 162.319 636.351C178.812 641.97 195.566 647.091 212.793 649.9C237.26 653.889 262.249 653.172 287.06 652.791C310.413 652.444 333.767 652.409 357.12 652.386C371.99 652.363 387.914 652.663 400.083 660.987C403.234 663.137 406.125 665.935 407.31 669.507C408.448 672.918 407.914 676.617 407.618 680.19C405.983 700.028 412.227 719.554 415.936 739.126C422.998 776.387 420.829 815.289 409.68 851.59C349.063 846.931 288.126 846.329 227.426 849.774C207.402 850.907 187.414 852.491 167.39 853.647C89.5096 858.168 11.2503 856.387 -66.3337 848.329C-67.8504 848.168 -64.7934 640.733 -64.9949 621.727C-65.3859 583.519 -66.0731 545.322 -67.0802 507.125C-67.2935 499.136 -73.2177 463.552 -66.3811 458.882C-56.4047 452.049 -44.106 473.564 -40.6699 478.894C-20.1483 510.651 2.28095 541.773 31.1913 566.871V566.883Z" fill="#F2AE28"/>
<path d="M-57.7317 -45.9652V62.0239C-57.7317 62.0239 24.2363 101.423 127.982 -45.9652H-57.7317Z" fill="#F5B32E"/>
<path d="M249.429 0.84436C273.979 49.6192 301.645 101.585 351.196 126.383C372.642 137.111 393.637 160.73 405.118 181.412C410.96 113.793 414.206 26.0931 403.353 -44.2889C403.294 -41.5374 344.17 -51.1213 338.411 -51.0288C315.603 -50.6588 290.839 -52.5433 269.109 -59.6762C258.363 -63.2023 228.741 -70.2543 226.704 -51.9652C225.092 -37.5721 243.351 -11.2482 249.441 0.855919L249.429 0.84436Z" fill="#96B76E"/>
<path d="M-20.8829 789.624C-6.75948 779.786 7.60091 769.832 23.9163 764.063C35.7411 759.878 48.2768 758.017 60.7415 756.375C105.244 750.525 152.555 747.647 193.101 766.456C233.066 784.988 260.377 821.682 285.946 856.907C179.049 866.341 71.5473 869.162 -35.7172 865.347C-54.0824 864.688 -114.747 862.653 -86.725 832.167C-80.8008 825.717 -70.5992 823.497 -63.1702 819.011C-48.561 810.19 -34.876 799.358 -20.8829 789.612V789.624Z" fill="#96B76E"/>
</g>
<g clip-path="url(#clip1_2009_77)">
<path d="M107.389 371.264C107.463 370.504 107.488 369.589 107.43 368.552C107.365 367.514 107.299 366.428 107.217 365.292C107.143 364.157 107.052 363.005 106.954 361.836C106.855 360.668 106.748 359.565 106.633 358.536C106.518 357.498 106.419 356.575 106.321 355.774C106.222 354.966 106.164 354.328 106.107 353.895C105.926 352.515 105.959 351.346 106.304 350.472C106.649 349.598 107.274 348.904 108.146 348.389C109.025 347.874 110.176 347.515 111.607 347.319C113.029 347.114 114.772 347.008 116.802 347.008C119.293 347.008 121.332 347.041 122.919 347.106C124.505 347.172 125.862 347.368 126.996 347.678C128.131 347.997 129.183 348.487 130.17 349.165C131.148 349.843 132.291 350.799 133.59 352.041C133.968 352.408 134.551 352.948 135.308 353.642C136.064 354.345 136.911 355.129 137.856 356.019C138.802 356.902 139.854 357.874 141.005 358.92C142.156 359.974 143.356 361.044 144.606 362.13C145.781 361.215 146.924 360.276 148.034 359.312C149.144 358.348 150.179 357.433 151.149 356.559C152.111 355.693 152.966 354.892 153.714 354.165C154.454 353.446 155.013 352.882 155.391 352.498C156.658 351.191 157.784 350.145 158.77 349.402C159.749 348.658 160.817 348.111 161.96 347.76C163.103 347.408 164.484 347.188 166.112 347.114C167.739 347.033 169.795 347 172.286 347C174.25 347 175.944 347.131 177.366 347.384C178.788 347.637 179.964 348.103 180.885 348.781C181.805 349.451 182.463 350.374 182.849 351.534C183.236 352.703 183.326 354.247 183.244 356.06C183.219 356.64 183.211 357.474 183.187 358.536C183.162 359.598 183.154 360.815 183.162 362.188C183.17 363.56 183.219 365.023 183.31 366.583C183.4 368.143 183.524 369.704 183.696 371.248C183.869 372.8 184.066 374.295 184.28 375.741C184.494 377.187 184.822 378.495 185.184 379.63C185.825 381.648 185.982 383.388 185.735 384.72C185.488 386.043 184.781 387.089 183.63 387.857C182.48 388.625 180.86 389.148 178.821 389.426C176.782 389.712 174.3 389.834 171.505 389.785C168.709 389.736 166.49 389.548 164.755 389.213C163.021 388.878 161.754 388.315 160.858 387.522C159.962 386.738 159.395 385.684 159.132 384.369C158.869 383.053 158.935 381.362 159.321 379.344C159.477 378.527 159.806 377.522 160.365 376.37C160.916 375.218 161.541 374.001 162.248 372.727C162.947 371.452 163.612 370.153 164.213 368.846C164.821 367.539 165.174 366.338 165.257 365.251C163.44 365.897 161.952 366.714 160.784 367.71C159.617 368.699 158.655 369.769 157.759 370.872C156.863 371.983 156.024 373.07 155.26 374.14C154.495 375.21 153.69 376.15 152.835 376.959C151.98 377.767 150.985 378.372 149.834 378.764C148.683 379.156 147.286 379.222 145.65 378.968C143.783 378.682 142.238 378.176 141.005 377.473C139.763 376.771 138.678 375.954 137.725 375.006C136.771 374.066 135.875 373.037 135.004 371.918C134.14 370.799 133.22 369.671 132.25 368.552C131.279 367.433 130.153 366.362 128.862 365.357C127.58 364.344 125.993 363.47 124.111 362.735C124.267 363.675 124.719 364.745 125.459 365.954C126.199 367.163 126.996 368.372 127.843 369.598C128.698 370.815 129.528 372 130.342 373.127C131.156 374.254 131.715 375.227 132.028 375.995C132.817 377.906 133.244 379.459 133.211 380.594C133.187 381.73 132.726 382.539 131.847 383.012C130.967 383.478 129.668 383.633 127.958 383.478C126.248 383.315 124.086 382.898 121.497 382.212C118.907 381.525 116.728 380.79 114.928 380.063C113.128 379.336 111.664 378.535 110.53 377.694C109.387 376.844 108.549 375.921 108.031 374.9C107.504 373.879 107.233 372.653 107.365 371.281L107.389 371.264Z" fill="white"/>
<path d="M189.254 379.646C189.632 378.511 189.993 377.204 190.24 375.758C190.487 374.312 190.717 372.816 190.931 371.264C191.136 369.712 191.309 368.16 191.44 366.599C191.572 365.039 191.654 363.568 191.703 362.196C191.753 360.823 191.777 359.606 191.786 358.544C191.786 357.482 191.81 356.64 191.802 356.06C191.777 354.247 191.925 352.694 192.353 351.534C192.78 350.374 193.446 349.451 194.359 348.773C195.271 348.103 196.439 347.637 197.869 347.376C199.3 347.123 201.034 346.992 203.073 346.992C205.112 346.992 206.739 347.123 208.186 347.376C209.633 347.629 210.825 348.087 211.762 348.732C212.7 349.386 213.407 350.292 213.875 351.444C214.344 352.596 214.541 354.149 214.574 355.954C214.582 356.534 214.632 357.376 214.673 358.454C214.714 359.532 214.771 360.758 214.854 362.122C214.936 363.487 215.059 364.949 215.215 366.501C215.371 368.054 215.561 369.606 215.783 371.142C216.004 372.686 216.243 374.173 216.498 375.611C216.744 377.048 217.09 378.347 217.451 379.467C218.101 381.468 218.265 383.192 218.043 384.516C217.821 385.839 217.172 386.893 216.078 387.677C214.985 388.462 213.44 389.025 211.417 389.352C209.387 389.679 206.822 389.859 203.673 389.883C200.533 389.908 197.861 389.769 195.707 389.475C193.553 389.181 191.892 388.641 190.725 387.873C189.558 387.097 188.859 386.052 188.629 384.72C188.399 383.396 188.588 381.656 189.262 379.63L189.254 379.646Z" fill="white"/>
<path d="M221.241 379.426C221.578 378.29 221.891 376.991 222.096 375.553C222.302 374.115 222.491 372.629 222.647 371.084C222.811 369.54 222.927 367.996 223.009 366.444C223.083 364.892 223.124 363.438 223.124 362.073C223.124 360.717 223.099 359.508 223.066 358.454C223.033 357.4 223.009 356.567 222.976 355.995C222.869 354.198 222.927 352.662 223.288 351.502C223.65 350.35 224.258 349.435 225.13 348.765C226.001 348.095 227.144 347.637 228.566 347.384C229.988 347.131 231.715 347 233.754 347C234.888 347 236.113 347.082 237.437 347.229C238.76 347.384 240.084 347.654 241.407 348.029C242.731 348.405 244.022 348.904 245.271 349.508C246.521 350.113 247.606 350.872 248.51 351.771C249.119 352.351 249.76 353.078 250.434 353.952C251.108 354.827 251.922 355.856 252.867 357.032C253.813 358.209 254.964 359.565 256.263 361.093C257.553 362.621 259.197 364.312 261.129 366.101C261.277 365.308 261.417 364.344 261.54 363.209C261.664 362.073 261.762 360.954 261.828 359.835C261.894 358.715 261.951 357.702 261.993 356.787C262.034 355.872 262.058 355.251 262.067 354.949C262.083 353.364 262.239 351.992 262.667 350.962C263.094 349.933 263.76 349.124 264.664 348.528C265.569 347.94 266.736 347.531 268.175 347.31C269.605 347.09 271.348 346.984 273.379 346.984C275.409 346.984 277.037 347.09 278.467 347.286C279.898 347.49 281.057 347.841 281.937 348.332C282.816 348.822 283.425 349.516 283.737 350.39C284.049 351.265 284.074 352.433 283.901 353.814C283.844 354.247 283.794 354.892 283.696 355.717C283.597 356.534 283.515 357.465 283.441 358.495C283.367 359.524 283.277 360.627 283.178 361.787C283.079 362.947 282.972 364.099 282.857 365.243C282.75 366.387 282.676 367.473 282.644 368.495C282.611 369.524 282.586 370.439 282.627 371.215C282.693 372.596 282.496 373.797 282.002 374.81C281.509 375.823 280.679 376.746 279.536 377.596C278.393 378.445 276.946 379.238 275.171 379.957C273.403 380.684 271.241 381.411 268.652 382.106C266.391 382.71 264.459 383.045 262.839 383.102C261.22 383.159 259.863 382.963 258.745 382.514C257.635 382.065 256.665 381.419 255.843 380.57C255.021 379.72 254.322 378.625 253.509 377.416C253.229 376.877 252.728 376.158 251.963 375.251C251.198 374.344 250.343 373.364 249.39 372.302C248.436 371.24 247.483 370.194 246.529 369.156C245.575 368.119 244.778 367.228 244.137 366.509C244.178 367.212 244.276 368.111 244.441 369.197C244.597 370.284 244.77 371.387 244.951 372.514C245.131 373.633 245.312 374.679 245.485 375.635C245.666 376.599 245.797 377.318 245.904 377.792C246.323 379.646 246.332 381.191 245.97 382.481C245.6 383.772 244.827 384.883 243.66 385.823C242.492 386.77 240.922 387.587 239.056 388.184C237.19 388.78 235.077 389.181 232.825 389.279C230.572 389.377 228.492 389.295 226.749 389.058C225.006 388.813 223.576 388.323 222.565 387.579C221.545 386.836 220.912 385.806 220.699 384.499C220.485 383.184 220.641 381.46 221.241 379.434V379.426Z" fill="white"/>
<path d="M123.946 404.197C123.642 403.706 123.256 403.061 122.771 402.277C122.286 401.492 121.792 400.651 121.291 399.76C120.79 398.862 120.28 397.93 119.77 396.966C119.26 396.002 118.775 395.071 118.315 394.189C117.855 393.298 117.452 392.498 117.09 391.787C116.728 391.076 116.465 390.512 116.268 390.12C115.635 388.854 115.273 387.882 115.257 387.212C115.24 386.55 115.512 386.117 116.071 385.913C116.63 385.717 117.476 385.725 118.611 385.945C119.745 386.166 121.184 386.55 122.919 387.097C125.048 387.767 126.815 388.315 128.213 388.772C129.611 389.23 130.844 389.736 131.904 390.292C132.965 390.855 134.001 391.55 135.004 392.399C136.006 393.249 137.199 394.377 138.571 395.79C138.974 396.207 139.648 396.852 140.364 397.612C141.071 398.363 141.893 399.229 142.838 400.218C143.784 401.198 144.844 402.293 146.028 403.486C147.212 404.679 148.453 405.912 149.744 407.162C150.664 406.623 151.585 406.043 152.473 405.414C153.361 404.785 154.191 404.156 154.956 403.543C155.72 402.922 156.386 402.326 156.945 401.762C157.512 401.198 157.924 400.741 158.195 400.422C159.116 399.336 159.864 398.412 160.497 397.751C161.13 397.089 161.878 396.607 162.741 396.305C163.604 396.002 164.698 395.831 166.079 395.798C167.452 395.757 169.268 395.765 171.595 395.798C173.428 395.831 175.089 395.97 176.511 396.231C177.933 396.484 179.142 396.934 180.104 397.571C181.066 398.2 181.773 399.066 182.2 400.144C182.627 401.223 182.767 402.653 182.743 404.311C182.734 404.842 182.743 405.602 182.759 406.574C182.759 407.538 182.792 408.641 182.841 409.883C182.891 411.116 182.981 412.44 183.113 413.829C183.244 415.218 183.417 416.607 183.63 417.971C183.844 419.343 184.074 420.659 184.321 421.917C184.568 423.175 184.921 424.311 185.291 425.299C185.957 427.039 186.146 428.534 185.941 429.662C185.735 430.789 185.086 431.663 184.033 432.301C182.981 432.938 181.493 433.363 179.684 433.575C177.868 433.788 175.705 433.853 173.445 433.763C171.184 433.673 169.573 433.453 168.389 433.118C167.197 432.783 166.416 432.268 165.824 431.574C165.24 430.879 164.821 429.972 164.509 428.853C164.204 427.726 164.007 426.296 163.982 424.572C163.974 423.869 164.04 423.02 164.262 422.039C164.484 421.059 164.763 420.013 165.133 418.919C165.495 417.816 165.865 416.696 166.21 415.553C166.556 414.409 166.745 413.347 166.728 412.375C165.355 412.914 164.352 413.6 163.654 414.45C162.955 415.299 162.585 416.223 162.067 417.154C161.549 418.085 161.048 418.951 160.587 419.776C160.127 420.602 159.601 421.288 159.009 421.819C158.417 422.35 157.669 422.66 156.756 422.734C155.844 422.807 154.66 422.513 153.246 421.892C151.643 421.182 150.303 420.365 149.209 419.482C148.116 418.6 147.154 417.677 146.291 416.688C145.428 415.708 144.564 414.662 143.644 413.51C142.731 412.358 141.761 411.19 140.75 410.005C139.361 408.38 137.823 406.223 135.793 405.422C135.579 405.34 135.357 405.259 135.127 405.267C133.729 405.316 135.053 406.501 135.357 406.819C136.187 407.652 136.829 408.788 137.544 409.728C138.497 410.969 139.41 412.162 140.298 413.306C141.177 414.45 141.827 415.389 142.246 416.092C143.298 417.865 143.964 419.196 144.219 420.087C144.474 420.977 144.351 421.476 143.857 421.566C143.364 421.655 142.526 421.37 141.35 420.675C140.175 419.981 138.67 418.919 136.861 417.44C135.053 415.961 133.532 414.556 132.233 413.298C130.934 412.04 129.791 410.863 128.78 409.809C127.769 408.755 126.857 407.791 126.067 406.893C125.27 406.002 124.53 405.112 123.955 404.18L123.946 404.197Z" fill="white"/>
<path d="M189.229 425.324C189.591 424.343 189.919 423.216 190.15 421.958C190.38 420.7 190.594 419.384 190.791 418.02C190.988 416.656 191.144 415.275 191.268 413.878C191.391 412.489 191.465 411.165 191.506 409.932C191.547 408.698 191.572 407.587 191.572 406.623C191.572 405.659 191.588 404.891 191.572 404.36C191.531 402.702 191.679 401.272 192.131 400.202C192.583 399.123 193.298 398.274 194.276 397.644C195.255 397.015 196.521 396.582 198.075 396.337C199.62 396.092 201.494 395.962 203.673 395.945C205.769 395.929 207.562 396.027 209.058 396.247C210.554 396.468 211.754 396.868 212.667 397.457C213.588 398.045 214.237 398.878 214.64 399.94C215.043 401.002 215.141 402.424 215.075 404.074C215.051 404.597 215.051 405.373 215.026 406.353C215.001 407.334 214.993 408.445 215.001 409.67C215.001 410.896 215.043 412.211 215.1 413.592C215.166 414.973 215.256 416.345 215.38 417.701C215.503 419.057 215.635 420.356 215.782 421.606C215.93 422.848 216.161 423.968 216.416 424.932C216.868 426.647 216.909 428.11 216.637 429.245C216.366 430.373 215.75 431.279 214.747 431.966C213.744 432.652 212.354 433.15 210.488 433.461C208.622 433.771 206.222 433.959 203.229 434.008C200.237 434.057 197.655 433.951 195.575 433.714C193.496 433.469 191.884 433.02 190.758 432.366C189.623 431.712 188.933 430.822 188.686 429.695C188.44 428.567 188.588 427.08 189.229 425.34V425.324Z" fill="white"/>
<path d="M219.696 424.76C220.057 423.771 220.403 422.636 220.682 421.378C220.962 420.12 221.225 418.804 221.471 417.448C221.718 416.084 221.932 414.711 222.113 413.322C222.294 411.942 222.433 410.626 222.532 409.401C222.631 408.175 222.705 407.081 222.754 406.125C222.803 405.169 222.844 404.409 222.861 403.886C222.902 402.244 223.075 400.823 223.477 399.744C223.88 398.666 224.497 397.8 225.302 397.154C226.108 396.509 227.127 396.043 228.303 395.757C229.479 395.471 230.852 395.292 232.323 395.218C233.137 395.177 233.967 395.218 235.028 395.218C236.097 395.218 237.223 395.267 238.39 395.373C239.549 395.479 240.708 395.659 241.81 395.929C242.912 396.198 243.841 396.631 244.548 397.244C245.024 397.628 245.51 398.135 245.986 398.764C246.455 399.393 247.022 400.128 247.631 400.97C248.354 401.966 248.987 402.947 249.538 404.017C250.039 404.981 250.327 405.643 251.544 404.45C253.476 402.555 254.437 401.354 255.186 398.78C255.424 397.963 255.588 397.399 255.654 397.122C256.016 395.708 256.46 394.417 257.06 393.38C257.66 392.342 258.416 391.435 259.337 390.676C260.258 389.908 261.376 389.254 262.667 388.682C263.957 388.11 265.486 387.563 267.229 387.007C268.898 386.476 270.304 386.101 271.438 385.872C272.573 385.651 273.42 385.627 273.987 385.806C274.546 385.986 274.801 386.419 274.751 387.089C274.702 387.767 274.316 388.748 273.683 390.014C273.485 390.406 273.214 390.978 272.844 391.697C272.474 392.416 272.08 393.225 271.644 394.091C271.208 394.965 270.731 395.888 270.213 396.844C269.696 397.808 269.169 398.739 268.635 399.654C268.101 400.569 267.599 401.403 267.139 402.171C266.678 402.938 266.259 403.584 265.922 404.115C265.33 405.038 264.615 405.92 263.834 406.795C263.061 407.669 262.157 408.625 261.146 409.687C260.135 410.741 259 411.909 257.718 413.159C256.435 414.409 254.923 415.806 253.122 417.301C251.544 418.6 250.22 419.539 249.151 420.136C248.083 420.732 247.219 421.026 246.562 421.026C245.912 421.026 245.378 420.806 244.983 420.365C244.581 419.923 244.498 419.139 244.178 418.347C244.096 417.971 243.882 417.505 243.463 416.941C243.043 416.378 242.517 415.79 241.892 415.136C241.268 414.491 240.602 413.845 239.928 413.192C239.253 412.538 238.67 411.958 238.209 411.484C238.135 412.089 238.094 412.848 238.07 413.747C238.045 414.646 238.02 415.553 238.004 416.468C237.987 417.374 237.971 418.216 237.971 418.968C237.971 419.727 237.971 420.291 237.971 420.659C238.02 422.08 237.757 423.338 237.231 424.482C236.705 425.626 235.866 426.737 234.757 427.815C233.638 428.894 232.216 429.98 230.704 430.887C229.191 431.794 227.785 432.448 226.708 432.66C225.631 432.864 224.316 432.897 223.132 432.758C221.948 432.627 220.896 432.26 220.156 431.663C219.416 431.075 218.964 430.226 218.874 429.114C218.783 428.003 219.03 426.525 219.671 424.768L219.696 424.76Z" fill="white"/>
</g>
<path d="M77.8553 655.26C76.762 655.26 75.7553 655.073 74.8353 654.7C73.9153 654.327 73.1086 653.807 72.4153 653.14C71.7353 652.473 71.202 651.693 70.8153 650.8C70.4286 649.893 70.2353 648.92 70.2353 647.88C70.2353 646.84 70.422 645.88 70.7953 645C71.182 644.107 71.7153 643.327 72.3953 642.66C73.0753 641.993 73.8753 641.48 74.7953 641.12C75.7153 640.747 76.722 640.56 77.8153 640.56C78.9086 640.56 79.9153 640.747 80.8353 641.12C81.7553 641.48 82.5553 641.993 83.2353 642.66C83.9153 643.327 84.442 644.107 84.8153 645C85.202 645.893 85.3953 646.86 85.3953 647.9C85.3953 648.94 85.202 649.907 84.8153 650.8C84.442 651.693 83.9153 652.48 83.2353 653.16C82.5553 653.827 81.7553 654.347 80.8353 654.72C79.9286 655.08 78.9353 655.26 77.8553 655.26ZM77.8153 652.06C78.6153 652.06 79.3086 651.887 79.8953 651.54C80.482 651.193 80.9353 650.707 81.2553 650.08C81.5753 649.453 81.7353 648.72 81.7353 647.88C81.7353 647.267 81.642 646.707 81.4553 646.2C81.282 645.693 81.022 645.26 80.6753 644.9C80.3286 644.527 79.9153 644.24 79.4353 644.04C78.9553 643.84 78.4153 643.74 77.8153 643.74C77.0153 643.74 76.322 643.913 75.7353 644.26C75.1486 644.593 74.6953 645.073 74.3753 645.7C74.0553 646.327 73.8953 647.053 73.8953 647.88C73.8953 648.52 73.982 649.1 74.1553 649.62C74.342 650.127 74.6086 650.567 74.9553 650.94C75.302 651.3 75.7153 651.58 76.1953 651.78C76.6753 651.967 77.2153 652.06 77.8153 652.06ZM86.9458 655V645.22H90.4258V655H86.9458ZM90.4258 649.68L88.8658 648.36C89.2524 647.253 89.7658 646.42 90.4058 645.86C91.0458 645.3 91.8791 645.02 92.9058 645.02C93.3724 645.02 93.7724 645.08 94.1058 645.2C94.4524 645.32 94.7458 645.507 94.9858 645.76L92.9658 648.46C92.8591 648.34 92.7058 648.247 92.5058 648.18C92.3191 648.1 92.1058 648.06 91.8658 648.06C91.4124 648.06 91.0591 648.2 90.8058 648.48C90.5524 648.747 90.4258 649.147 90.4258 649.68ZM99.6028 655.2C98.6561 655.2 97.8228 654.98 97.1028 654.54C96.3828 654.1 95.8161 653.5 95.4028 652.74C95.0028 651.967 94.8028 651.093 94.8028 650.12C94.8028 649.133 95.0028 648.253 95.4028 647.48C95.8161 646.707 96.3761 646.107 97.0828 645.68C97.8028 645.24 98.6428 645.02 99.6028 645.02C100.216 645.02 100.789 645.133 101.323 645.36C101.856 645.573 102.303 645.88 102.663 646.28C103.023 646.68 103.236 647.133 103.303 647.64V652.42C103.236 652.927 103.023 653.393 102.663 653.82C102.303 654.247 101.856 654.587 101.323 654.84C100.789 655.08 100.216 655.2 99.6028 655.2ZM100.223 652.1C100.609 652.1 100.943 652.02 101.223 651.86C101.503 651.687 101.723 651.453 101.883 651.16C102.056 650.853 102.143 650.5 102.143 650.1C102.143 649.713 102.063 649.373 101.903 649.08C101.743 648.787 101.516 648.553 101.223 648.38C100.943 648.207 100.616 648.12 100.243 648.12C99.8695 648.12 99.5361 648.207 99.2428 648.38C98.9628 648.553 98.7361 648.793 98.5628 649.1C98.4028 649.393 98.3228 649.727 98.3228 650.1C98.3228 650.487 98.4028 650.833 98.5628 651.14C98.7228 651.433 98.9495 651.667 99.2428 651.84C99.5361 652.013 99.8628 652.1 100.223 652.1ZM105.423 655H102.003V652.38L102.503 649.98L101.943 647.62V640.42H105.423V655ZM112.394 655.22C111.3 655.22 110.334 655.007 109.494 654.58C108.654 654.14 107.994 653.533 107.514 652.76C107.034 651.987 106.794 651.1 106.794 650.1C106.794 649.113 107.027 648.24 107.494 647.48C107.96 646.707 108.594 646.1 109.394 645.66C110.207 645.207 111.12 644.98 112.134 644.98C113.12 644.98 113.994 645.193 114.754 645.62C115.527 646.033 116.127 646.613 116.554 647.36C116.994 648.093 117.214 648.933 117.214 649.88C117.214 650.08 117.2 650.287 117.174 650.5C117.16 650.7 117.12 650.933 117.054 651.2L108.434 651.24V649L115.674 648.94L114.114 649.92C114.1 649.373 114.02 648.927 113.874 648.58C113.727 648.22 113.514 647.947 113.234 647.76C112.954 647.573 112.6 647.48 112.174 647.48C111.734 647.48 111.354 647.587 111.034 647.8C110.714 648.013 110.467 648.313 110.294 648.7C110.12 649.087 110.034 649.553 110.034 650.1C110.034 650.66 110.127 651.14 110.314 651.54C110.5 651.927 110.767 652.22 111.114 652.42C111.46 652.62 111.887 652.72 112.394 652.72C112.874 652.72 113.294 652.64 113.654 652.48C114.027 652.32 114.36 652.073 114.654 651.74L116.474 653.56C115.994 654.107 115.407 654.52 114.714 654.8C114.034 655.08 113.26 655.22 112.394 655.22ZM118.528 655V645.22H122.008V655H118.528ZM122.008 649.68L120.448 648.36C120.834 647.253 121.348 646.42 121.988 645.86C122.628 645.3 123.461 645.02 124.488 645.02C124.954 645.02 125.354 645.08 125.688 645.2C126.034 645.32 126.328 645.507 126.568 645.76L124.548 648.46C124.441 648.34 124.288 648.247 124.088 648.18C123.901 648.1 123.688 648.06 123.448 648.06C122.994 648.06 122.641 648.2 122.388 648.48C122.134 648.747 122.008 649.147 122.008 649.68ZM135.362 655.2C134.455 655.2 133.648 654.98 132.942 654.54C132.235 654.1 131.682 653.5 131.282 652.74C130.882 651.967 130.682 651.093 130.682 650.12C130.682 649.133 130.882 648.253 131.282 647.48C131.682 646.707 132.235 646.107 132.942 645.68C133.648 645.24 134.455 645.02 135.362 645.02C135.975 645.02 136.535 645.133 137.042 645.36C137.548 645.573 137.962 645.88 138.282 646.28C138.615 646.68 138.815 647.133 138.882 647.64V652.56C138.815 653.08 138.615 653.54 138.282 653.94C137.962 654.327 137.548 654.633 137.042 654.86C136.535 655.087 135.975 655.2 135.362 655.2ZM136.102 652.1C136.675 652.1 137.135 651.913 137.482 651.54C137.842 651.167 138.022 650.687 138.022 650.1C138.022 649.713 137.942 649.373 137.782 649.08C137.622 648.787 137.395 648.553 137.102 648.38C136.822 648.207 136.495 648.12 136.122 648.12C135.748 648.12 135.415 648.207 135.122 648.38C134.842 648.553 134.615 648.793 134.442 649.1C134.282 649.393 134.202 649.727 134.202 650.1C134.202 650.487 134.282 650.833 134.442 651.14C134.602 651.433 134.828 651.667 135.122 651.84C135.415 652.013 135.742 652.1 136.102 652.1ZM137.882 655V652.38L138.382 649.98L137.882 647.62V645.22H141.302V655H137.882ZM144.673 655V641.18H148.153V655H144.673ZM142.513 648.12V645.22H150.313V648.12H142.513ZM156.567 655V641.18H160.047V655H156.567ZM154.407 648.12V645.22H162.207V648.12H154.407ZM169.77 655V649.48C169.77 649.027 169.637 648.673 169.37 648.42C169.103 648.153 168.763 648.02 168.35 648.02C168.07 648.02 167.817 648.08 167.59 648.2C167.377 648.32 167.21 648.487 167.09 648.7C166.97 648.913 166.91 649.173 166.91 649.48L165.55 648.84C165.55 648.053 165.71 647.38 166.03 646.82C166.363 646.247 166.817 645.807 167.39 645.5C167.963 645.18 168.63 645.02 169.39 645.02C170.177 645.02 170.857 645.18 171.43 645.5C172.017 645.807 172.463 646.233 172.77 646.78C173.09 647.327 173.25 647.96 173.25 648.68V655H169.77ZM163.43 655V640.42H166.91V655H163.43ZM180.03 655.22C178.937 655.22 177.97 655.007 177.13 654.58C176.29 654.14 175.63 653.533 175.15 652.76C174.67 651.987 174.43 651.1 174.43 650.1C174.43 649.113 174.664 648.24 175.13 647.48C175.597 646.707 176.23 646.1 177.03 645.66C177.844 645.207 178.757 644.98 179.77 644.98C180.757 644.98 181.63 645.193 182.39 645.62C183.164 646.033 183.764 646.613 184.19 647.36C184.63 648.093 184.85 648.933 184.85 649.88C184.85 650.08 184.837 650.287 184.81 650.5C184.797 650.7 184.757 650.933 184.69 651.2L176.07 651.24V649L183.31 648.94L181.75 649.92C181.737 649.373 181.657 648.927 181.51 648.58C181.364 648.22 181.15 647.947 180.87 647.76C180.59 647.573 180.237 647.48 179.81 647.48C179.37 647.48 178.99 647.587 178.67 647.8C178.35 648.013 178.104 648.313 177.93 648.7C177.757 649.087 177.67 649.553 177.67 650.1C177.67 650.66 177.764 651.14 177.95 651.54C178.137 651.927 178.404 652.22 178.75 652.42C179.097 652.62 179.524 652.72 180.03 652.72C180.51 652.72 180.93 652.64 181.29 652.48C181.664 652.32 181.997 652.073 182.29 651.74L184.11 653.56C183.63 654.107 183.044 654.52 182.35 654.8C181.67 655.08 180.897 655.22 180.03 655.22ZM191.196 655V641.18H194.676V655H191.196ZM189.036 648.12V645.22H196.836V648.12H189.036ZM201.983 655.2C201.076 655.2 200.269 654.98 199.563 654.54C198.856 654.1 198.303 653.5 197.903 652.74C197.503 651.967 197.303 651.093 197.303 650.12C197.303 649.133 197.503 648.253 197.903 647.48C198.303 646.707 198.856 646.107 199.563 645.68C200.269 645.24 201.076 645.02 201.983 645.02C202.596 645.02 203.156 645.133 203.663 645.36C204.169 645.573 204.583 645.88 204.903 646.28C205.236 646.68 205.436 647.133 205.503 647.64V652.56C205.436 653.08 205.236 653.54 204.903 653.94C204.583 654.327 204.169 654.633 203.663 654.86C203.156 655.087 202.596 655.2 201.983 655.2ZM202.723 652.1C203.296 652.1 203.756 651.913 204.103 651.54C204.463 651.167 204.643 650.687 204.643 650.1C204.643 649.713 204.563 649.373 204.403 649.08C204.243 648.787 204.016 648.553 203.723 648.38C203.443 648.207 203.116 648.12 202.743 648.12C202.369 648.12 202.036 648.207 201.743 648.38C201.463 648.553 201.236 648.793 201.063 649.1C200.903 649.393 200.823 649.727 200.823 650.1C200.823 650.487 200.903 650.833 201.063 651.14C201.223 651.433 201.449 651.667 201.743 651.84C202.036 652.013 202.363 652.1 202.723 652.1ZM204.503 655V652.38L205.003 649.98L204.503 647.62V645.22H207.923V655H204.503ZM215.774 655.2C215.147 655.2 214.567 655.08 214.034 654.84C213.5 654.587 213.06 654.247 212.714 653.82C212.367 653.393 212.154 652.927 212.074 652.42V647.64C212.154 647.133 212.367 646.68 212.714 646.28C213.074 645.88 213.52 645.573 214.054 645.36C214.587 645.133 215.16 645.02 215.774 645.02C216.72 645.02 217.554 645.24 218.274 645.68C218.994 646.107 219.554 646.707 219.954 647.48C220.367 648.253 220.574 649.133 220.574 650.12C220.574 651.093 220.367 651.967 219.954 652.74C219.554 653.5 218.994 654.1 218.274 654.54C217.554 654.98 216.72 655.2 215.774 655.2ZM209.954 655V640.42H213.434V647.62L212.854 649.98L213.354 652.38V655H209.954ZM215.154 652.1C215.527 652.1 215.854 652.013 216.134 651.84C216.427 651.667 216.654 651.433 216.814 651.14C216.974 650.833 217.054 650.487 217.054 650.1C217.054 649.727 216.974 649.393 216.814 649.1C216.654 648.793 216.427 648.553 216.134 648.38C215.84 648.207 215.507 648.12 215.134 648.12C214.76 648.12 214.427 648.207 214.134 648.38C213.854 648.553 213.634 648.787 213.474 649.08C213.314 649.373 213.234 649.713 213.234 650.1C213.234 650.5 213.314 650.853 213.474 651.16C213.634 651.453 213.86 651.687 214.154 651.86C214.447 652.02 214.78 652.1 215.154 652.1ZM222.004 655V640.42H225.484V655H222.004ZM232.472 655.22C231.378 655.22 230.412 655.007 229.572 654.58C228.732 654.14 228.072 653.533 227.592 652.76C227.112 651.987 226.872 651.1 226.872 650.1C226.872 649.113 227.105 648.24 227.572 647.48C228.038 646.707 228.672 646.1 229.472 645.66C230.285 645.207 231.198 644.98 232.212 644.98C233.198 644.98 234.072 645.193 234.832 645.62C235.605 646.033 236.205 646.613 236.632 647.36C237.072 648.093 237.292 648.933 237.292 649.88C237.292 650.08 237.278 650.287 237.252 650.5C237.238 650.7 237.198 650.933 237.132 651.2L228.512 651.24V649L235.752 648.94L234.192 649.92C234.178 649.373 234.098 648.927 233.952 648.58C233.805 648.22 233.592 647.947 233.312 647.76C233.032 647.573 232.678 647.48 232.252 647.48C231.812 647.48 231.432 647.587 231.112 647.8C230.792 648.013 230.545 648.313 230.372 648.7C230.198 649.087 230.112 649.553 230.112 650.1C230.112 650.66 230.205 651.14 230.392 651.54C230.578 651.927 230.845 652.22 231.192 652.42C231.538 652.62 231.965 652.72 232.472 652.72C232.952 652.72 233.372 652.64 233.732 652.48C234.105 652.32 234.438 652.073 234.732 651.74L236.552 653.56C236.072 654.107 235.485 654.52 234.792 654.8C234.112 655.08 233.338 655.22 232.472 655.22ZM238.586 657.44L240.086 654.62L241.086 654.34C240.979 654.553 240.853 654.733 240.706 654.88C240.559 655.013 240.393 655.08 240.206 655.08C239.793 655.08 239.406 654.907 239.046 654.56C238.699 654.213 238.526 653.773 238.526 653.24C238.526 652.667 238.713 652.18 239.086 651.78C239.473 651.38 239.959 651.18 240.546 651.18C241.079 651.18 241.546 651.38 241.946 651.78C242.346 652.18 242.546 652.667 242.546 653.24C242.546 653.467 242.499 653.74 242.406 654.06C242.326 654.367 242.153 654.76 241.886 655.24L240.206 658.32L238.586 657.44ZM248.28 655V640.82H251.86V655H248.28ZM251.12 655V651.98H258.8V655H251.12ZM251.12 649.24V646.3H258.08V649.24H251.12ZM251.12 643.84V640.82H258.68V643.84H251.12ZM266.539 655L264.439 651.38L263.639 650.9L259.779 645.22H263.799L265.859 648.74L266.619 649.18L270.539 655H266.539ZM259.579 655L263.599 649.22L265.579 651.36L263.299 655H259.579ZM266.499 650.9L264.519 648.76L266.619 645.22H270.339L266.499 650.9ZM277.395 655.2C276.768 655.2 276.188 655.087 275.655 654.86C275.121 654.633 274.681 654.327 274.335 653.94C273.988 653.54 273.775 653.08 273.695 652.56V647.8C273.775 647.28 273.988 646.813 274.335 646.4C274.695 645.973 275.135 645.64 275.655 645.4C276.188 645.147 276.768 645.02 277.395 645.02C278.341 645.02 279.175 645.24 279.895 645.68C280.615 646.107 281.175 646.707 281.575 647.48C281.988 648.253 282.195 649.133 282.195 650.12C282.195 651.093 281.988 651.967 281.575 652.74C281.175 653.5 280.615 654.1 279.895 654.54C279.175 654.98 278.341 655.2 277.395 655.2ZM271.575 659.14V645.22H275.055V647.68L274.475 650.04L274.975 652.42V659.14H271.575ZM276.735 652.1C277.121 652.1 277.461 652.013 277.755 651.84C278.048 651.667 278.275 651.433 278.435 651.14C278.595 650.833 278.675 650.487 278.675 650.1C278.675 649.713 278.595 649.373 278.435 649.08C278.275 648.787 278.048 648.553 277.755 648.38C277.461 648.207 277.128 648.12 276.755 648.12C276.395 648.12 276.068 648.207 275.775 648.38C275.481 648.54 275.255 648.773 275.095 649.08C274.935 649.373 274.855 649.713 274.855 650.1C274.855 650.487 274.935 650.833 275.095 651.14C275.255 651.433 275.475 651.667 275.755 651.84C276.048 652.013 276.375 652.1 276.735 652.1ZM283.625 655V640.42H287.105V655H283.625ZM293.973 655.22C292.919 655.22 291.979 655 291.153 654.56C290.339 654.107 289.693 653.493 289.213 652.72C288.733 651.933 288.493 651.053 288.493 650.08C288.493 649.107 288.726 648.24 289.193 647.48C289.673 646.707 290.326 646.1 291.153 645.66C291.979 645.207 292.913 644.98 293.953 644.98C294.993 644.98 295.919 645.207 296.733 645.66C297.559 646.1 298.213 646.707 298.693 647.48C299.173 648.24 299.413 649.107 299.413 650.08C299.413 651.053 299.173 651.933 298.693 652.72C298.226 653.493 297.579 654.107 296.753 654.56C295.939 655 295.013 655.22 293.973 655.22ZM293.953 652.12C294.339 652.12 294.673 652.04 294.953 651.88C295.246 651.707 295.473 651.467 295.633 651.16C295.793 650.853 295.873 650.5 295.873 650.1C295.873 649.7 295.786 649.353 295.613 649.06C295.453 648.753 295.233 648.52 294.953 648.36C294.673 648.187 294.339 648.1 293.953 648.1C293.579 648.1 293.246 648.187 292.953 648.36C292.659 648.533 292.433 648.773 292.273 649.08C292.113 649.373 292.033 649.72 292.033 650.12C292.033 650.507 292.113 650.853 292.273 651.16C292.433 651.467 292.659 651.707 292.953 651.88C293.246 652.04 293.579 652.12 293.953 652.12ZM300.793 655V645.22H304.273V655H300.793ZM304.273 649.68L302.713 648.36C303.1 647.253 303.613 646.42 304.253 645.86C304.893 645.3 305.727 645.02 306.753 645.02C307.22 645.02 307.62 645.08 307.953 645.2C308.3 645.32 308.593 645.507 308.833 645.76L306.813 648.46C306.707 648.34 306.553 648.247 306.353 648.18C306.167 648.1 305.953 648.06 305.713 648.06C305.26 648.06 304.907 648.2 304.653 648.48C304.4 648.747 304.273 649.147 304.273 649.68ZM314.19 655.22C313.097 655.22 312.13 655.007 311.29 654.58C310.45 654.14 309.79 653.533 309.31 652.76C308.83 651.987 308.59 651.1 308.59 650.1C308.59 649.113 308.824 648.24 309.29 647.48C309.757 646.707 310.39 646.1 311.19 645.66C312.004 645.207 312.917 644.98 313.93 644.98C314.917 644.98 315.79 645.193 316.55 645.62C317.324 646.033 317.924 646.613 318.35 647.36C318.79 648.093 319.01 648.933 319.01 649.88C319.01 650.08 318.997 650.287 318.97 650.5C318.957 650.7 318.917 650.933 318.85 651.2L310.23 651.24V649L317.47 648.94L315.91 649.92C315.897 649.373 315.817 648.927 315.67 648.58C315.524 648.22 315.31 647.947 315.03 647.76C314.75 647.573 314.397 647.48 313.97 647.48C313.53 647.48 313.15 647.587 312.83 647.8C312.51 648.013 312.264 648.313 312.09 648.7C311.917 649.087 311.83 649.553 311.83 650.1C311.83 650.66 311.924 651.14 312.11 651.54C312.297 651.927 312.564 652.22 312.91 652.42C313.257 652.62 313.684 652.72 314.19 652.72C314.67 652.72 315.09 652.64 315.45 652.48C315.824 652.32 316.157 652.073 316.45 651.74L318.27 653.56C317.79 654.107 317.204 654.52 316.51 654.8C315.83 655.08 315.057 655.22 314.19 655.22ZM106.204 682.2C105.258 682.2 104.424 681.98 103.704 681.54C102.984 681.1 102.418 680.5 102.004 679.74C101.604 678.967 101.404 678.093 101.404 677.12C101.404 676.133 101.604 675.253 102.004 674.48C102.418 673.707 102.978 673.107 103.684 672.68C104.404 672.24 105.244 672.02 106.204 672.02C106.818 672.02 107.391 672.133 107.924 672.36C108.458 672.573 108.904 672.88 109.264 673.28C109.624 673.68 109.838 674.133 109.904 674.64V679.42C109.838 679.927 109.624 680.393 109.264 680.82C108.904 681.247 108.458 681.587 107.924 681.84C107.391 682.08 106.818 682.2 106.204 682.2ZM106.824 679.1C107.211 679.1 107.544 679.02 107.824 678.86C108.104 678.687 108.324 678.453 108.484 678.16C108.658 677.853 108.744 677.5 108.744 677.1C108.744 676.713 108.664 676.373 108.504 676.08C108.344 675.787 108.118 675.553 107.824 675.38C107.544 675.207 107.218 675.12 106.844 675.12C106.471 675.12 106.138 675.207 105.844 675.38C105.564 675.553 105.338 675.793 105.164 676.1C105.004 676.393 104.924 676.727 104.924 677.1C104.924 677.487 105.004 677.833 105.164 678.14C105.324 678.433 105.551 678.667 105.844 678.84C106.138 679.013 106.464 679.1 106.824 679.1ZM112.024 682H108.604V679.38L109.104 676.98L108.544 674.62V667.42H112.024V682ZM114.035 682V672.22H117.535V682H114.035ZM115.775 671.08C115.255 671.08 114.822 670.907 114.475 670.56C114.128 670.2 113.955 669.753 113.955 669.22C113.955 668.7 114.128 668.26 114.475 667.9C114.822 667.54 115.255 667.36 115.775 667.36C116.322 667.36 116.762 667.54 117.095 667.9C117.442 668.26 117.615 668.7 117.615 669.22C117.615 669.753 117.442 670.2 117.095 670.56C116.762 670.907 116.322 671.08 115.775 671.08ZM123.283 682.28C122.683 682.28 122.09 682.2 121.503 682.04C120.93 681.88 120.39 681.667 119.883 681.4C119.39 681.12 118.97 680.8 118.623 680.44L120.523 678.5C120.843 678.833 121.223 679.093 121.663 679.28C122.116 679.467 122.596 679.56 123.103 679.56C123.396 679.56 123.616 679.52 123.763 679.44C123.923 679.36 124.003 679.247 124.003 679.1C124.003 678.887 123.89 678.727 123.663 678.62C123.45 678.5 123.163 678.4 122.803 678.32C122.456 678.227 122.09 678.12 121.703 678C121.316 677.867 120.943 677.693 120.583 677.48C120.223 677.267 119.93 676.967 119.703 676.58C119.49 676.193 119.383 675.7 119.383 675.1C119.383 674.473 119.55 673.927 119.883 673.46C120.23 672.98 120.71 672.607 121.323 672.34C121.936 672.06 122.656 671.92 123.483 671.92C124.323 671.92 125.123 672.067 125.883 672.36C126.643 672.64 127.256 673.067 127.723 673.64L125.803 675.58C125.483 675.22 125.13 674.973 124.743 674.84C124.356 674.693 124.003 674.62 123.683 674.62C123.376 674.62 123.156 674.667 123.023 674.76C122.89 674.84 122.823 674.953 122.823 675.1C122.823 675.273 122.93 675.413 123.143 675.52C123.37 675.627 123.656 675.727 124.003 675.82C124.363 675.9 124.73 676.007 125.103 676.14C125.49 676.273 125.856 676.46 126.203 676.7C126.563 676.927 126.85 677.233 127.063 677.62C127.29 678.007 127.403 678.507 127.403 679.12C127.403 680.093 127.03 680.867 126.283 681.44C125.536 682 124.536 682.28 123.283 682.28ZM135.317 682V676.48C135.317 676.027 135.184 675.673 134.917 675.42C134.65 675.153 134.31 675.02 133.897 675.02C133.617 675.02 133.364 675.08 133.137 675.2C132.924 675.32 132.757 675.487 132.637 675.7C132.517 675.913 132.457 676.173 132.457 676.48L131.097 675.84C131.097 675.053 131.257 674.38 131.577 673.82C131.91 673.247 132.364 672.807 132.937 672.5C133.51 672.18 134.177 672.02 134.937 672.02C135.724 672.02 136.404 672.18 136.977 672.5C137.564 672.807 138.01 673.233 138.317 673.78C138.637 674.327 138.797 674.96 138.797 675.68V682H135.317ZM128.977 682V667.42H132.457V682H128.977ZM145.577 682.22C144.484 682.22 143.517 682.007 142.677 681.58C141.837 681.14 141.177 680.533 140.697 679.76C140.217 678.987 139.977 678.1 139.977 677.1C139.977 676.113 140.211 675.24 140.677 674.48C141.144 673.707 141.777 673.1 142.577 672.66C143.391 672.207 144.304 671.98 145.317 671.98C146.304 671.98 147.177 672.193 147.937 672.62C148.711 673.033 149.311 673.613 149.737 674.36C150.177 675.093 150.397 675.933 150.397 676.88C150.397 677.08 150.384 677.287 150.357 677.5C150.344 677.7 150.304 677.933 150.237 678.2L141.617 678.24V676L148.857 675.94L147.297 676.92C147.284 676.373 147.204 675.927 147.057 675.58C146.911 675.22 146.697 674.947 146.417 674.76C146.137 674.573 145.784 674.48 145.357 674.48C144.917 674.48 144.537 674.587 144.217 674.8C143.897 675.013 143.651 675.313 143.477 675.7C143.304 676.087 143.217 676.553 143.217 677.1C143.217 677.66 143.311 678.14 143.497 678.54C143.684 678.927 143.951 679.22 144.297 679.42C144.644 679.62 145.071 679.72 145.577 679.72C146.057 679.72 146.477 679.64 146.837 679.48C147.211 679.32 147.544 679.073 147.837 678.74L149.657 680.56C149.177 681.107 148.591 681.52 147.897 681.8C147.217 682.08 146.444 682.22 145.577 682.22ZM155.431 682.28C154.831 682.28 154.238 682.2 153.651 682.04C153.078 681.88 152.538 681.667 152.031 681.4C151.538 681.12 151.118 680.8 150.771 680.44L152.671 678.5C152.991 678.833 153.371 679.093 153.811 679.28C154.265 679.467 154.745 679.56 155.251 679.56C155.545 679.56 155.765 679.52 155.911 679.44C156.071 679.36 156.151 679.247 156.151 679.1C156.151 678.887 156.038 678.727 155.811 678.62C155.598 678.5 155.311 678.4 154.951 678.32C154.605 678.227 154.238 678.12 153.851 678C153.465 677.867 153.091 677.693 152.731 677.48C152.371 677.267 152.078 676.967 151.851 676.58C151.638 676.193 151.531 675.7 151.531 675.1C151.531 674.473 151.698 673.927 152.031 673.46C152.378 672.98 152.858 672.607 153.471 672.34C154.085 672.06 154.805 671.92 155.631 671.92C156.471 671.92 157.271 672.067 158.031 672.36C158.791 672.64 159.405 673.067 159.871 673.64L157.951 675.58C157.631 675.22 157.278 674.973 156.891 674.84C156.505 674.693 156.151 674.62 155.831 674.62C155.525 674.62 155.305 674.667 155.171 674.76C155.038 674.84 154.971 674.953 154.971 675.1C154.971 675.273 155.078 675.413 155.291 675.52C155.518 675.627 155.805 675.727 156.151 675.82C156.511 675.9 156.878 676.007 157.251 676.14C157.638 676.273 158.005 676.46 158.351 676.7C158.711 676.927 158.998 677.233 159.211 677.62C159.438 678.007 159.551 678.507 159.551 679.12C159.551 680.093 159.178 680.867 158.431 681.44C157.685 682 156.685 682.28 155.431 682.28ZM161.105 684.44L162.605 681.62L163.605 681.34C163.499 681.553 163.372 681.733 163.225 681.88C163.079 682.013 162.912 682.08 162.725 682.08C162.312 682.08 161.925 681.907 161.565 681.56C161.219 681.213 161.045 680.773 161.045 680.24C161.045 679.667 161.232 679.18 161.605 678.78C161.992 678.38 162.479 678.18 163.065 678.18C163.599 678.18 164.065 678.38 164.465 678.78C164.865 679.18 165.065 679.667 165.065 680.24C165.065 680.467 165.019 680.74 164.925 681.06C164.845 681.367 164.672 681.76 164.405 682.24L162.725 685.32L161.105 684.44ZM174.719 686.44C173.639 686.44 172.679 686.253 171.839 685.88C171.012 685.52 170.366 685.007 169.899 684.34L171.999 682.26C172.332 682.62 172.699 682.9 173.099 683.1C173.499 683.313 173.986 683.42 174.559 683.42C175.252 683.42 175.799 683.247 176.199 682.9C176.612 682.567 176.819 682.08 176.819 681.44V678.9L177.379 676.78L176.879 674.68V672.22H180.299V681.32C180.299 682.36 180.052 683.26 179.559 684.02C179.079 684.793 178.419 685.387 177.579 685.8C176.739 686.227 175.786 686.44 174.719 686.44ZM174.559 681.64C173.652 681.64 172.846 681.433 172.139 681.02C171.446 680.593 170.899 680.013 170.499 679.28C170.099 678.547 169.899 677.727 169.899 676.82C169.899 675.913 170.099 675.1 170.499 674.38C170.899 673.66 171.446 673.087 172.139 672.66C172.846 672.233 173.652 672.02 174.559 672.02C175.172 672.02 175.732 672.133 176.239 672.36C176.759 672.573 177.179 672.88 177.499 673.28C177.819 673.667 178.019 674.12 178.099 674.64V679.02C178.019 679.54 177.812 680 177.479 680.4C177.159 680.787 176.746 681.093 176.239 681.32C175.732 681.533 175.172 681.64 174.559 681.64ZM175.199 678.62C175.572 678.62 175.892 678.54 176.159 678.38C176.439 678.207 176.652 677.987 176.799 677.72C176.946 677.44 177.019 677.14 177.019 676.82C177.019 676.487 176.946 676.187 176.799 675.92C176.652 675.653 176.446 675.44 176.179 675.28C175.912 675.107 175.592 675.02 175.219 675.02C174.859 675.02 174.539 675.107 174.259 675.28C173.992 675.44 173.786 675.66 173.639 675.94C173.492 676.207 173.419 676.5 173.419 676.82C173.419 677.127 173.492 677.42 173.639 677.7C173.786 677.967 173.992 678.187 174.259 678.36C174.526 678.533 174.839 678.62 175.199 678.62ZM187.257 682.22C186.164 682.22 185.197 682.007 184.357 681.58C183.517 681.14 182.857 680.533 182.377 679.76C181.897 678.987 181.657 678.1 181.657 677.1C181.657 676.113 181.89 675.24 182.357 674.48C182.824 673.707 183.457 673.1 184.257 672.66C185.07 672.207 185.984 671.98 186.997 671.98C187.984 671.98 188.857 672.193 189.617 672.62C190.39 673.033 190.99 673.613 191.417 674.36C191.857 675.093 192.077 675.933 192.077 676.88C192.077 677.08 192.064 677.287 192.037 677.5C192.024 677.7 191.984 677.933 191.917 678.2L183.297 678.24V676L190.537 675.94L188.977 676.92C188.964 676.373 188.884 675.927 188.737 675.58C188.59 675.22 188.377 674.947 188.097 674.76C187.817 674.573 187.464 674.48 187.037 674.48C186.597 674.48 186.217 674.587 185.897 674.8C185.577 675.013 185.33 675.313 185.157 675.7C184.984 676.087 184.897 676.553 184.897 677.1C184.897 677.66 184.99 678.14 185.177 678.54C185.364 678.927 185.63 679.22 185.977 679.42C186.324 679.62 186.75 679.72 187.257 679.72C187.737 679.72 188.157 679.64 188.517 679.48C188.89 679.32 189.224 679.073 189.517 678.74L191.337 680.56C190.857 681.107 190.27 681.52 189.577 681.8C188.897 682.08 188.124 682.22 187.257 682.22ZM194.555 682V668.18H198.035V682H194.555ZM192.395 675.12V672.22H200.195V675.12H192.395ZM213.001 682.2C212.055 682.2 211.221 681.98 210.501 681.54C209.781 681.1 209.215 680.5 208.801 679.74C208.401 678.967 208.201 678.093 208.201 677.12C208.201 676.133 208.401 675.253 208.801 674.48C209.215 673.707 209.775 673.107 210.481 672.68C211.201 672.24 212.041 672.02 213.001 672.02C213.615 672.02 214.188 672.133 214.721 672.36C215.255 672.573 215.701 672.88 216.061 673.28C216.421 673.68 216.635 674.133 216.701 674.64V679.42C216.635 679.927 216.421 680.393 216.061 680.82C215.701 681.247 215.255 681.587 214.721 681.84C214.188 682.08 213.615 682.2 213.001 682.2ZM213.621 679.1C214.008 679.1 214.341 679.02 214.621 678.86C214.901 678.687 215.121 678.453 215.281 678.16C215.455 677.853 215.541 677.5 215.541 677.1C215.541 676.713 215.461 676.373 215.301 676.08C215.141 675.787 214.915 675.553 214.621 675.38C214.341 675.207 214.015 675.12 213.641 675.12C213.268 675.12 212.935 675.207 212.641 675.38C212.361 675.553 212.135 675.793 211.961 676.1C211.801 676.393 211.721 676.727 211.721 677.1C211.721 677.487 211.801 677.833 211.961 678.14C212.121 678.433 212.348 678.667 212.641 678.84C212.935 679.013 213.261 679.1 213.621 679.1ZM218.821 682H215.401V679.38L215.901 676.98L215.341 674.62V667.42H218.821V682ZM225.792 682.22C224.699 682.22 223.732 682.007 222.892 681.58C222.052 681.14 221.392 680.533 220.912 679.76C220.432 678.987 220.192 678.1 220.192 677.1C220.192 676.113 220.425 675.24 220.892 674.48C221.359 673.707 221.992 673.1 222.792 672.66C223.605 672.207 224.519 671.98 225.532 671.98C226.519 671.98 227.392 672.193 228.152 672.62C228.925 673.033 229.525 673.613 229.952 674.36C230.392 675.093 230.612 675.933 230.612 676.88C230.612 677.08 230.599 677.287 230.572 677.5C230.559 677.7 230.519 677.933 230.452 678.2L221.832 678.24V676L229.072 675.94L227.512 676.92C227.499 676.373 227.419 675.927 227.272 675.58C227.125 675.22 226.912 674.947 226.632 674.76C226.352 674.573 225.999 674.48 225.572 674.48C225.132 674.48 224.752 674.587 224.432 674.8C224.112 675.013 223.865 675.313 223.692 675.7C223.519 676.087 223.432 676.553 223.432 677.1C223.432 677.66 223.525 678.14 223.712 678.54C223.899 678.927 224.165 679.22 224.512 679.42C224.859 679.62 225.285 679.72 225.792 679.72C226.272 679.72 226.692 679.64 227.052 679.48C227.425 679.32 227.759 679.073 228.052 678.74L229.872 680.56C229.392 681.107 228.805 681.52 228.112 681.8C227.432 682.08 226.659 682.22 225.792 682.22ZM231.926 682V667.42H235.406V682H231.926ZM237.434 682V672.22H240.934V682H237.434ZM239.174 671.08C238.654 671.08 238.22 670.907 237.874 670.56C237.527 670.2 237.354 669.753 237.354 669.22C237.354 668.7 237.527 668.26 237.874 667.9C238.22 667.54 238.654 667.36 239.174 667.36C239.72 667.36 240.16 667.54 240.494 667.9C240.84 668.26 241.014 668.7 241.014 669.22C241.014 669.753 240.84 670.2 240.494 670.56C240.16 670.907 239.72 671.08 239.174 671.08ZM245.901 682L241.921 672.22H245.641L248.181 680.46H246.761L249.281 672.22H252.961L248.981 682H245.901ZM258.683 682.22C257.589 682.22 256.623 682.007 255.783 681.58C254.943 681.14 254.283 680.533 253.803 679.76C253.323 678.987 253.083 678.1 253.083 677.1C253.083 676.113 253.316 675.24 253.783 674.48C254.249 673.707 254.883 673.1 255.683 672.66C256.496 672.207 257.409 671.98 258.423 671.98C259.409 671.98 260.283 672.193 261.043 672.62C261.816 673.033 262.416 673.613 262.843 674.36C263.283 675.093 263.503 675.933 263.503 676.88C263.503 677.08 263.489 677.287 263.463 677.5C263.449 677.7 263.409 677.933 263.343 678.2L254.723 678.24V676L261.963 675.94L260.403 676.92C260.389 676.373 260.309 675.927 260.163 675.58C260.016 675.22 259.803 674.947 259.523 674.76C259.243 674.573 258.889 674.48 258.463 674.48C258.023 674.48 257.643 674.587 257.323 674.8C257.003 675.013 256.756 675.313 256.583 675.7C256.409 676.087 256.323 676.553 256.323 677.1C256.323 677.66 256.416 678.14 256.603 678.54C256.789 678.927 257.056 679.22 257.403 679.42C257.749 679.62 258.176 679.72 258.683 679.72C259.163 679.72 259.583 679.64 259.943 679.48C260.316 679.32 260.649 679.073 260.943 678.74L262.763 680.56C262.283 681.107 261.696 681.52 261.003 681.8C260.323 682.08 259.549 682.22 258.683 682.22ZM264.817 682V672.22H268.297V682H264.817ZM268.297 676.68L266.737 675.36C267.124 674.253 267.637 673.42 268.277 672.86C268.917 672.3 269.75 672.02 270.777 672.02C271.244 672.02 271.644 672.08 271.977 672.2C272.324 672.32 272.617 672.507 272.857 672.76L270.837 675.46C270.73 675.34 270.577 675.247 270.377 675.18C270.19 675.1 269.977 675.06 269.737 675.06C269.284 675.06 268.93 675.2 268.677 675.48C268.424 675.747 268.297 676.147 268.297 676.68ZM276.428 682.02L272.508 672.22H276.228L278.628 680.28H277.168L279.588 672.22H283.308L279.288 682.02H276.428ZM274.108 686.14L277.008 679.76L279.288 682.02L277.608 686.14H274.108ZM285.001 682.22C284.415 682.22 283.935 682.027 283.561 681.64C283.188 681.253 283.001 680.773 283.001 680.2C283.001 679.627 283.188 679.147 283.561 678.76C283.935 678.373 284.415 678.18 285.001 678.18C285.575 678.18 286.048 678.373 286.421 678.76C286.795 679.147 286.981 679.627 286.981 680.2C286.981 680.773 286.795 681.253 286.421 681.64C286.048 682.027 285.575 682.22 285.001 682.22Z" fill="white"/>
<defs>
<clipPath id="clip0_2009_77">
<rect width="514" height="931" fill="white" transform="translate(-94 -64)"/>
</clipPath>
<clipPath id="clip1_2009_77">
<rect width="178" height="87" fill="white" transform="translate(106 347)"/>
</clipPath>
</defs>
</svg>
