<svg width="29" height="28" viewBox="0 0 29 28" fill="none" xmlns="http://www.w3.org/2000/svg">
<mask id="path-1-outside-1_153_48" maskUnits="userSpaceOnUse" x="-0.215332" y="-0.773438" width="29" height="29" fill="black">
<rect fill="white" x="-0.215332" y="-0.773438" width="29" height="29"/>
<path d="M1.78467 14.0002C1.78467 6.94551 7.50362 1.22656 14.5583 1.22656C21.613 1.22656 27.3319 6.94551 27.3319 14.0002C27.3319 21.0549 21.613 26.7738 14.5583 26.7738C7.50362 26.7738 1.78467 21.0549 1.78467 14.0002Z"/>
</mask>
<path d="M1.78467 14.0002C1.78467 6.94551 7.50362 1.22656 14.5583 1.22656C21.613 1.22656 27.3319 6.94551 27.3319 14.0002C27.3319 21.0549 21.613 26.7738 14.5583 26.7738C7.50362 26.7738 1.78467 21.0549 1.78467 14.0002Z" fill="#91B275"/>
<path d="M14.5583 26.7738V25.7094C8.09151 25.7094 2.84914 20.467 2.84914 14.0002H1.78467H0.720199C0.720199 21.6428 6.91573 27.8383 14.5583 27.8383V26.7738ZM27.3319 14.0002H26.2675C26.2675 20.467 21.0251 25.7094 14.5583 25.7094V26.7738V27.8383C22.2009 27.8383 28.3964 21.6428 28.3964 14.0002H27.3319ZM14.5583 1.22656V2.29103C21.0251 2.29103 26.2675 7.5334 26.2675 14.0002H27.3319H28.3964C28.3964 6.35762 22.2009 0.162093 14.5583 0.162093V1.22656ZM14.5583 1.22656V0.162093C6.91573 0.162093 0.720199 6.35762 0.720199 14.0002H1.78467H2.84914C2.84914 7.5334 8.09151 2.29103 14.5583 2.29103V1.22656Z" fill="#FFFBFA" mask="url(#path-1-outside-1_153_48)"/>
<path d="M12.7826 12.5364C12.7582 12.1452 12.4212 11.8479 12.0301 11.8724C11.6389 11.8968 11.3416 12.2337 11.3661 12.6249L11.7209 18.3021C11.7453 18.6932 12.0823 18.9905 12.4734 18.9661C12.8646 18.9416 13.1619 18.6047 13.1374 18.2135L12.7826 12.5364Z" fill="#EFF4EB"/>
<path d="M17.7501 12.6249C17.7746 12.2337 17.4773 11.8968 17.0861 11.8724C16.695 11.8479 16.358 12.1452 16.3336 12.5364L15.9788 18.2135C15.9543 18.6047 16.2516 18.9416 16.6428 18.9661C17.0339 18.9905 17.3709 18.6932 17.3953 18.3021L17.7501 12.6249Z" fill="#EFF4EB"/>
<path d="M15.2677 12.5806C15.2677 12.1887 14.95 11.871 14.5581 11.871C14.1662 11.871 13.8484 12.1887 13.8484 12.5806V18.2578C13.8484 18.6497 14.1662 18.9675 14.5581 18.9675C14.95 18.9675 15.2677 18.6497 15.2677 18.2578V12.5806Z" fill="#EFF4EB"/>
<path fill-rule="evenodd" clip-rule="evenodd" d="M13.963 6.19385H15.1531C15.5272 6.19384 15.85 6.19383 16.1158 6.21554C16.3963 6.23847 16.6754 6.28907 16.9439 6.42589C17.3445 6.63 17.6702 6.95568 17.8743 7.35627C18.0111 7.62479 18.0617 7.90383 18.0846 8.18439C18.1041 8.42267 18.1061 8.70668 18.1063 9.03243H20.9449C21.3368 9.03243 21.6545 9.35015 21.6545 9.74208C21.6545 10.134 21.3368 10.4517 20.9449 10.4517H20.1923L19.7221 17.975C19.6884 18.5133 19.6606 18.9588 19.6088 19.3213C19.555 19.6987 19.4684 20.0437 19.2864 20.3654C19.0031 20.8661 18.5744 21.2688 18.057 21.5204C17.7246 21.682 17.3749 21.7468 16.9948 21.777C16.6297 21.8061 16.1835 21.8061 15.6441 21.8061H13.472C12.9327 21.8061 12.4864 21.8061 12.1213 21.777C11.7413 21.7468 11.3915 21.682 11.0591 21.5204C10.5418 21.2688 10.113 20.8661 9.82973 20.3654C9.6477 20.0437 9.56116 19.6987 9.50729 19.3213C9.45554 18.9587 9.42771 18.5134 9.39408 17.9751L8.92387 10.4517H8.17126C7.77933 10.4517 7.46161 10.134 7.46161 9.74208C7.46161 9.35015 7.77933 9.03243 8.17126 9.03243H11.0099C11.0101 8.70668 11.0121 8.42267 11.0315 8.18439C11.0545 7.90383 11.1051 7.62479 11.2419 7.35627C11.446 6.95568 11.7717 6.63 12.1723 6.42589C12.4408 6.28907 12.7198 6.23847 13.0004 6.21554C13.2662 6.19383 13.5889 6.19384 13.963 6.19385ZM16.67 8.29996C16.6845 8.47677 16.6866 8.70237 16.687 9.03243H12.4292C12.4295 8.70237 12.4317 8.47677 12.4461 8.29996C12.4619 8.10718 12.4886 8.0357 12.5065 8.00062C12.5745 7.86709 12.6831 7.75852 12.8166 7.69049C12.8517 7.67261 12.9232 7.64587 13.116 7.63012C13.317 7.61369 13.5812 7.61314 13.9904 7.61314H15.1258C15.5349 7.61314 15.7991 7.61369 16.0002 7.63012C16.193 7.64587 16.2644 7.67261 16.2995 7.69049C16.4331 7.75852 16.5416 7.86709 16.6097 8.00062C16.6275 8.0357 16.6543 8.10718 16.67 8.29996ZM10.3459 10.4517H18.7702L18.3073 17.8583C18.2714 18.4319 18.2466 18.8207 18.2038 19.1207C18.1622 19.4122 18.1105 19.5616 18.0512 19.6664C17.9095 19.9168 17.6951 20.1182 17.4365 20.2439C17.3281 20.2966 17.1758 20.3389 16.8823 20.3622C16.5802 20.3862 16.1906 20.3868 15.6159 20.3868H13.5002C12.9256 20.3868 12.536 20.3862 12.2338 20.3622C11.9403 20.3389 11.788 20.2966 11.6797 20.2439C11.421 20.1182 11.2066 19.9168 11.065 19.6664C11.0057 19.5616 10.9539 19.4122 10.9123 19.1207C10.8695 18.8207 10.8447 18.4319 10.8088 17.8583L10.3459 10.4517Z" fill="#EFF4EB"/>
</svg>
