<svg width="29" height="28" viewBox="0 0 29 28" fill="none" xmlns="http://www.w3.org/2000/svg">
<mask id="path-1-outside-1_153_44" maskUnits="userSpaceOnUse" x="0.0444336" y="-0.773438" width="29" height="29" fill="black">
<rect fill="white" x="0.0444336" y="-0.773438" width="29" height="29"/>
<path d="M2.04443 14.0002C2.04443 6.94551 7.76338 1.22656 14.8181 1.22656C21.8727 1.22656 27.5917 6.94551 27.5917 14.0002C27.5917 21.0549 21.8727 26.7738 14.8181 26.7738C7.76338 26.7738 2.04443 21.0549 2.04443 14.0002Z"/>
</mask>
<path d="M2.04443 14.0002C2.04443 6.94551 7.76338 1.22656 14.8181 1.22656C21.8727 1.22656 27.5917 6.94551 27.5917 14.0002C27.5917 21.0549 21.8727 26.7738 14.8181 26.7738C7.76338 26.7738 2.04443 21.0549 2.04443 14.0002Z" fill="#91B275"/>
<path d="M14.8181 26.7738V25.7094C8.35127 25.7094 3.1089 20.467 3.1089 14.0002H2.04443H0.979964C0.979964 21.6428 7.17549 27.8383 14.8181 27.8383V26.7738ZM27.5917 14.0002H26.5272C26.5272 20.467 21.2849 25.7094 14.8181 25.7094V26.7738V27.8383C22.4606 27.8383 28.6562 21.6428 28.6562 14.0002H27.5917ZM14.8181 1.22656V2.29103C21.2849 2.29103 26.5272 7.5334 26.5272 14.0002H27.5917H28.6562C28.6562 6.35762 22.4606 0.162093 14.8181 0.162093V1.22656ZM14.8181 1.22656V0.162093C7.17549 0.162093 0.979964 6.35762 0.979964 14.0002H2.04443H3.1089C3.1089 7.5334 8.35127 2.29103 14.8181 2.29103V1.22656Z" fill="#FFFBFA" mask="url(#path-1-outside-1_153_44)"/>
<path d="M18.3658 7.61328C18.5521 7.4269 18.7734 7.27905 19.0169 7.17818C19.2605 7.07731 19.5215 7.02539 19.7851 7.02539C20.0486 7.02539 20.3096 7.07731 20.5532 7.17818C20.7967 7.27905 21.018 7.4269 21.2043 7.61328C21.3907 7.79966 21.5386 8.02094 21.6395 8.26446C21.7403 8.50798 21.7922 8.76899 21.7922 9.03257C21.7922 9.29616 21.7403 9.55717 21.6395 9.80069C21.5386 10.0442 21.3907 10.2655 21.2043 10.4519L11.6241 20.0321L7.72107 21.0966L8.78554 17.1935L18.3658 7.61328Z" stroke="#FFFBFA" stroke-width="1.06447" stroke-linecap="round" stroke-linejoin="round"/>
</svg>
