<svg width="14" height="18" viewBox="0 0 14 18" fill="none" xmlns="http://www.w3.org/2000/svg">
<path fill-rule="evenodd" clip-rule="evenodd" d="M2 15.0574L5.53572 12.6582C6.37832 12.0864 7.62168 12.0864 8.46428 12.6582L12 15.0574V2.66663C12 2.2294 11.5523 1.87496 11 1.87496H3C2.44772 1.87496 2 2.2294 2 2.66663V15.0574ZM0 2.66663V16.7787C0 17.4551 1.00212 17.8199 1.65079 17.3798L6.8373 13.8604C6.93092 13.7968 7.06908 13.7968 7.1627 13.8604L12.3492 17.3798C12.9979 17.8199 14 17.4551 14 16.7787V2.66663C14 1.35495 12.6569 0.291626 11 0.291626H3C1.34315 0.291626 0 1.35495 0 2.66663Z" fill="#222C16" fill-opacity="0.62"/>
</svg>
