<svg width="15" height="15" viewBox="0 0 15 15" fill="none" xmlns="http://www.w3.org/2000/svg">
<path fill-rule="evenodd" clip-rule="evenodd" d="M0.636653 9.04272C-0.287122 4.73177 2.9992 0.666626 7.40802 0.666626C11.2326 0.666626 14.3331 3.76709 14.3331 7.59171C14.3331 12.0005 10.268 15.2868 5.95701 14.3631L4.62546 14.0777C4.45907 14.0421 4.28617 14.0517 4.12474 14.1055L2.14328 14.766C0.963134 15.1593 -0.159617 14.0366 0.233765 12.8565L0.894252 10.875C0.948063 10.7136 0.957639 10.5407 0.921985 10.3743L0.636653 9.04272ZM7.40802 1.99996C3.84806 1.99996 1.19448 5.28241 1.94039 8.76335L2.22572 10.0949C2.31129 10.4942 2.28831 10.9092 2.15916 11.2966L1.49868 13.2781C1.45274 13.4159 1.58384 13.547 1.72164 13.5011L3.7031 12.8406C4.09054 12.7114 4.5055 12.6884 4.90483 12.774L6.23638 13.0593C9.71731 13.8053 12.9998 11.1517 12.9998 7.59171C12.9998 4.50347 10.4963 1.99996 7.40802 1.99996Z" fill="#617E3F"/>
</svg>
