<svg width="27" height="17" viewBox="0 0 27 17" fill="none" xmlns="http://www.w3.org/2000/svg">
<g clip-path="url(#clip0_222_927)">
<path d="M19.6487 16.15H7.32228C6.30361 15.7225 6.92484 14.3062 6.71688 13.4406C3.29827 11.5206 0.92208 8.27557 0.227485 4.36795L0 2.7113V1.48961C0.150425 1.13728 0.403773 0.860103 0.814407 0.849976H26.1566C27.2586 0.928331 26.991 2.37337 26.9182 3.16225C26.5186 7.4739 24.0364 11.3016 20.2541 13.334C20.0377 14.221 20.6821 15.7092 19.6487 16.15Z" fill="#96B76E"/>
<path d="M1.6554 3.72652L1.5654 3.27652C1.45402 2.7196 1.87998 2.20001 2.44792 2.20001H24.5523C25.1202 2.20001 25.5462 2.7196 25.4348 3.27652L25.3448 3.72652C25.2607 4.1472 24.8913 4.45001 24.4623 4.45001H2.53792C2.10891 4.45001 1.73953 4.1472 1.6554 3.72652Z" fill="white"/>
</g>
<defs>
<clipPath id="clip0_222_927">
<rect width="27" height="15.3" fill="white" transform="translate(0 0.849976)"/>
</clipPath>
</defs>
</svg>
