<svg width="24" height="23" viewBox="0 0 24 23" fill="none" xmlns="http://www.w3.org/2000/svg">
<path fill-rule="evenodd" clip-rule="evenodd" d="M9.68335 0.958374C4.91989 0.958374 1.05835 4.81992 1.05835 9.58337C1.05835 14.3468 4.91989 18.2084 9.68335 18.2084C11.7198 18.2084 13.5914 17.5026 15.067 16.3223L20.5057 21.761C20.88 22.1353 21.4867 22.1353 21.861 21.761C22.2352 21.3868 22.2352 20.78 21.861 20.4057L16.4223 14.967C17.6026 13.4915 18.3083 11.6198 18.3083 9.58337C18.3083 4.81992 14.4468 0.958374 9.68335 0.958374ZM2.97502 9.58337C2.97502 5.87846 5.97844 2.87504 9.68335 2.87504C13.3883 2.87504 16.3917 5.87846 16.3917 9.58337C16.3917 13.2883 13.3883 16.2917 9.68335 16.2917C5.97844 16.2917 2.97502 13.2883 2.97502 9.58337Z" fill="#7E706D"/>
</svg>
