<svg width="31" height="17" viewBox="0 0 31 17" fill="none" xmlns="http://www.w3.org/2000/svg">
    <path 
      d="M22.332 17H8.63598C7.50413 16.525 8.19438 14.9514 7.96332 13.9896C4.16487 11.8563 1.52466 8.25066 0.752883 3.90886L0.500122 2.06814V0.710702C0.667261 0.319224 0.948759 0.0112528 1.40502 0H29.563C30.7875 0.087061 30.4902 1.69266 30.4092 2.56919C29.9653 7.35991 27.2072 11.6129 23.0047 13.8711C22.7642 14.8566 23.4809 16.5102 22.3326 17H22.332ZM28.5947 1.89106H2.48996C2.64126 5.80407 4.5443 9.46004 7.76334 11.6537C8.25538 11.989 9.19253 12.384 9.56903 12.7251C9.65172 12.8003 9.86519 13.1054 9.86519 13.1936V15.1119H21.1034V13.0757C21.1034 13.0538 21.2799 12.7393 21.3122 12.6961C21.5432 12.3887 22.6745 11.8711 23.0885 11.5951C26.3908 9.3943 28.291 5.86626 28.5959 1.89165L28.5947 1.89106Z" 
      fill="#6B843F"
    />
  </svg>
  