<svg width="21" height="22" viewBox="0 0 21 22" fill="none" xmlns="http://www.w3.org/2000/svg">
    <path d="M6.2587 3.65173e-07C5.45376 -1.10482e-05 4.78936 -2.04667e-05 4.24818 0.0441958C3.68608 0.090121 3.16938 0.188685 2.68404 0.435976C1.93139 0.81947 1.31947 1.43139 0.935976 2.18404C0.688685 2.66938 0.590121 3.18608 0.544196 3.74818C0.499979 4.28936 0.499989 4.95371 0.5 5.75865V16.2413C0.499989 17.0463 0.499979 17.7106 0.544196 18.2518C0.590121 18.8139 0.688685 19.3306 0.935976 19.816C1.31947 20.5686 1.93139 21.1805 2.68404 21.564C3.16938 21.8113 3.68608 21.9099 4.24818 21.9558C4.78937 22 5.45372 22 6.25868 22H10.601C10.0151 21.4259 9.52973 20.7496 9.17363 20H6.3C5.44342 20 4.86113 19.9992 4.41104 19.9624C3.97262 19.9266 3.74842 19.8617 3.59202 19.782C3.2157 19.5903 2.90974 19.2843 2.71799 18.908C2.6383 18.7516 2.57337 18.5274 2.53755 18.089C2.50078 17.6389 2.5 17.0566 2.5 16.2V5.8C2.5 4.94342 2.50078 4.36113 2.53755 3.91104C2.57337 3.47262 2.6383 3.24842 2.71799 3.09202C2.90974 2.7157 3.2157 2.40974 3.59202 2.21799C3.74842 2.1383 3.97262 2.07337 4.41104 2.03755C4.86113 2.00078 5.44342 2 6.3 2H12.7C13.5566 2 14.1389 2.00078 14.589 2.03755C15.0274 2.07337 15.2516 2.1383 15.408 2.21799C15.7843 2.40974 16.0903 2.7157 16.282 3.09202C16.3617 3.24842 16.4266 3.47262 16.4624 3.91104C16.4992 4.36113 16.5 4.94342 16.5 5.8V10.0709C17.2061 10.1719 17.8783 10.3783 18.5 10.6736V5.75868C18.5 4.95372 18.5 4.28937 18.4558 3.74818C18.4099 3.18608 18.3113 2.66938 18.064 2.18404C17.6805 1.43139 17.0686 0.81947 16.316 0.435976C15.8306 0.188685 15.3139 0.090121 14.7518 0.0441958C14.2106 -2.04667e-05 13.5463 -1.10482e-05 12.7414 3.65173e-07H6.2587Z" fill="#6B843F"/>
    <path d="M5.5 5C4.94772 5 4.5 5.44772 4.5 6C4.5 6.55229 4.94772 7 5.5 7H13.5C14.0523 7 14.5 6.55229 14.5 6C14.5 5.44772 14.0523 5 13.5 5H5.5Z" fill="#6B843F"/>
    <path d="M5.5 9C4.94772 9 4.5 9.44772 4.5 10C4.5 10.5523 4.94772 11 5.5 11H9.5C10.0523 11 10.5 10.5523 10.5 10C10.5 9.44772 10.0523 9 9.5 9H5.5Z" fill="#6B843F"/>
    <path d="M5.5 13C4.94772 13 4.5 13.4477 4.5 14C4.5 14.5523 4.94772 15 5.5 15H6.5C7.05229 15 7.5 14.5523 7.5 14C7.5 13.4477 7.05229 13 6.5 13H5.5Z" fill="#6B843F"/>
    <path fill-rule="evenodd" clip-rule="evenodd" d="M15.5 22C18.2614 22 20.5 19.7614 20.5 17C20.5 14.2386 18.2614 12 15.5 12C12.7386 12 10.5 14.2386 10.5 17C10.5 19.7614 12.7386 22 15.5 22ZM17.6464 14.5191C18.078 14.7657 18.2279 15.3155 17.9813 15.7471L15.9813 19.2471C15.8287 19.5142 15.5501 19.6848 15.2428 19.6995C14.9355 19.7142 14.642 19.5709 14.4646 19.3196L12.9646 17.1946C12.678 16.7885 12.7748 16.2269 13.1809 15.9403C13.5869 15.6536 14.1485 15.7505 14.4352 16.1565L15.1199 17.1266L16.4185 14.854C16.6651 14.4225 17.2148 14.2725 17.6464 14.5191Z" fill="#6B843F"/>
  </svg>
  