<svg width="25" height="24" viewBox="0 0 25 24" fill="none" xmlns="http://www.w3.org/2000/svg">
    <path d="M20.27 19.1228C20.0815 21.2939 18.3268 22.8864 16.1262 23.1258C13.6033 23.4001 10.7613 23.3274 8.21747 23.2606C5.83729 23.1985 3.28951 23.4544 1.66548 21.4393C0.802587 20.3683 0.689862 19.1877 0.609059 17.8714C0.451444 15.3097 0.476383 12.6481 0.609059 10.0921C0.651954 9.25949 0.62901 8.34353 0.828523 7.53032C1.25548 5.7866 2.87652 4.3579 4.729 4.20088C4.86566 2.23521 6.51364 0.558373 8.50477 0.250146C9.25693 0.133834 10.031 0.142557 10.7912 0.105725C13.4367 -0.0231878 16.194 -0.0464502 18.8455 0.104756C21.6946 0.266623 23.9391 1.20294 24.2972 4.2697C24.5815 6.70838 24.5047 9.45528 24.4359 11.9104C24.4039 13.0677 24.4349 14.3559 24.2373 15.4929C23.9081 17.382 22.2492 18.9483 20.272 19.1228H20.27ZM20.4107 17.348C20.7309 17.3025 21.0401 17.1387 21.3065 16.9671C22.724 16.0541 22.5415 14.5081 22.6113 13.0493C22.737 10.4197 22.7809 7.62434 22.5634 4.99665C22.3569 2.49885 21.2417 1.9832 18.8415 1.8349C16.606 1.69629 14.3345 1.72731 12.1 1.78837C11.0855 1.81648 9.9682 1.79516 8.96465 1.92601C7.77456 2.08109 6.76602 2.89431 6.55354 4.06325C7.17103 4.00897 7.78653 4.03514 8.40501 4.01963C10.878 3.9576 13.6263 3.88878 16.0803 4.15436C18.4425 4.41024 20.0745 6.02408 20.3169 8.31736C20.5553 10.5729 20.5045 13.0096 20.4556 15.2757L20.4107 17.3471V17.348ZM18.4435 19.3496C18.6839 17.8075 18.655 16.244 18.6759 14.6845C18.7019 12.8148 18.7308 10.915 18.5842 9.04528C18.2978 5.40471 15.787 5.82925 12.8013 5.7488C10.6106 5.68968 8.39404 5.6606 6.20339 5.79242C3.8671 5.93393 2.65007 6.39046 2.4346 8.86306C2.24008 11.0953 2.28098 13.4458 2.34282 15.6848C2.36178 16.3904 2.3538 17.097 2.38771 17.8017C2.49745 17.8317 2.46652 17.7735 2.49445 17.7435C3.44513 16.7064 4.85269 14.4819 6.11561 13.9411C7.31468 13.4273 8.77611 13.6357 9.73676 14.5032L11.3518 16.3003C12.3993 14.8347 14.6877 14.7998 15.8239 16.1859L18.4435 19.3486V19.3496ZM7.29273 15.4047C6.69918 15.4715 6.43982 15.8117 6.06174 16.2101C4.92651 17.4062 3.98282 18.7758 2.9244 20.0348C2.86854 20.1579 3.1319 20.4584 3.22866 20.5573C4.02771 21.3783 5.06517 21.4209 6.15651 21.4878C8.39105 21.6264 10.6635 21.5963 12.898 21.5343C13.9156 21.5062 15.0727 21.5314 16.0753 21.3918C16.3297 21.356 17.2344 21.1088 17.3482 20.8965C17.3901 20.819 17.2863 20.7317 17.2454 20.6736C16.6988 19.8865 15.8508 18.8834 15.2124 18.1457C14.8612 17.7396 14.2477 16.9235 13.6901 16.8925C12.925 16.8498 12.7334 17.5661 12.1409 17.8433C9.72479 18.9706 9.3128 15.1788 7.29074 15.4047H7.29273Z" 
      fill="#6B843F"/>
    <path d="M12.5339 10.7163C14.7106 10.3838 15.0308 13.5233 12.9848 13.7016C10.9388 13.88 10.6954 10.9964 12.5339 10.7163Z" 
      fill="#6B843F"/>
  </svg>
  