<svg width="22" height="25" viewBox="0 0 22 25" fill="none" xmlns="http://www.w3.org/2000/svg">
<path d="M5.7587 0.663086C4.95376 0.663075 4.28936 0.663065 3.74818 0.707282C3.18608 0.753207 2.66938 0.851771 2.18404 1.09906C1.43139 1.48256 0.819469 2.09448 0.435976 2.84713C0.188685 3.33246 0.0901208 3.84916 0.0441956 4.41126C-2.08542e-05 4.95245 -1.12558e-05 5.61679 3.7587e-07 6.42174V16.9044C-1.12557e-05 17.7093 -2.11038e-05 18.3737 0.0441956 18.9149C0.0901208 19.477 0.188685 19.9937 0.435976 20.479C0.819469 21.2317 1.43139 21.8436 2.18404 22.2271C2.66938 22.4744 3.18608 22.573 3.74818 22.6189C4.28937 22.6631 4.95372 22.6631 5.75868 22.6631H10.101C9.51513 22.089 9.02973 21.4127 8.67363 20.6631H5.8C4.94342 20.6631 4.36113 20.6623 3.91104 20.6255C3.47262 20.5897 3.24842 20.5248 3.09202 20.4451C2.7157 20.2534 2.40974 19.9474 2.21799 19.5711C2.1383 19.4147 2.07337 19.1905 2.03755 18.752C2.00078 18.302 2 17.7197 2 16.8631V6.46309C2 5.60651 2.00078 5.02422 2.03755 4.57413C2.07337 4.13571 2.1383 3.91151 2.21799 3.75511C2.40974 3.37878 2.7157 3.07282 3.09202 2.88108C3.24842 2.80139 3.47262 2.73646 3.91104 2.70064C4.36113 2.66387 4.94342 2.66309 5.8 2.66309H12.2C13.0566 2.66309 13.6389 2.66387 14.089 2.70064C14.5274 2.73646 14.7516 2.80139 14.908 2.88108C15.2843 3.07282 15.5903 3.37878 15.782 3.75511C15.8617 3.91151 15.9266 4.13571 15.9624 4.57413C15.9992 5.02422 16 5.60651 16 6.46309V10.734C16.7061 10.835 17.3783 11.0414 18 11.3367V6.42176C18 5.61681 18 4.95245 17.9558 4.41126C17.9099 3.84916 17.8113 3.33246 17.564 2.84713C17.1805 2.09448 16.5686 1.48256 15.816 1.09906C15.3306 0.851771 14.8139 0.753207 14.2518 0.707282C13.7106 0.663065 13.0463 0.663075 12.2414 0.663086H5.7587Z" fill="#2E1814" fill-opacity="0.62"/>
<path d="M5 5.66309C4.44772 5.66309 4 6.1108 4 6.66309C4 7.21537 4.44772 7.66309 5 7.66309H13C13.5523 7.66309 14 7.21537 14 6.66309C14 6.1108 13.5523 5.66309 13 5.66309H5Z" fill="#2E1814" fill-opacity="0.62"/>
<path d="M5 9.66309C4.44772 9.66309 4 10.1108 4 10.6631C4 11.2154 4.44772 11.6631 5 11.6631H9C9.55229 11.6631 10 11.2154 10 10.6631C10 10.1108 9.55229 9.66309 9 9.66309H5Z" fill="#2E1814" fill-opacity="0.62"/>
<path d="M5 13.6631C4.44772 13.6631 4 14.1108 4 14.6631C4 15.2154 4.44772 15.6631 5 15.6631H6C6.55229 15.6631 7 15.2154 7 14.6631C7 14.1108 6.55229 13.6631 6 13.6631H5Z" fill="#2E1814" fill-opacity="0.62"/>
<path d="M21.7308 17.8367C21.7308 21.4266 18.8505 24.3367 15.2974 24.3367C13.1169 24.3367 11.1908 23.2401 10.0284 21.5667L9.8058 21.2246C9.54109 20.7871 9.67804 20.2153 10.111 19.9478L10.1935 19.903C10.6134 19.6994 11.1252 19.846 11.3735 20.2561L11.5326 20.5003C12.365 21.6989 13.7414 22.4796 15.2974 22.4796C17.8353 22.4796 19.8927 20.4009 19.8927 17.8367C19.8927 15.2725 17.8353 13.1939 15.2974 13.1939C13.292 13.1939 11.5878 14.4925 10.9606 16.3024C11.2401 16.259 11.5352 16.3436 11.7504 16.5611L11.8138 16.6313C12.0887 16.9717 12.0887 17.4636 11.8138 17.8041L11.7504 17.8742L10.525 19.1123C10.1885 19.4523 9.6558 19.4739 9.29482 19.1764L9.22541 19.1123L8 17.8742C7.64109 17.5116 7.64109 16.9238 8 16.5611L8.06941 16.4971C8.34386 16.2709 8.71673 16.2314 9.02796 16.3737C9.68497 13.4884 12.2421 11.3367 15.2974 11.3367C18.8505 11.3367 21.7308 14.2469 21.7308 17.8367ZM15.6038 17.5272H17.1355C17.6431 17.5272 18.0546 17.9429 18.0546 18.4558C18.0546 18.9686 17.6431 19.3843 17.1355 19.3843H14.9911C14.3143 19.3843 13.7656 18.83 13.7656 18.1462V15.051C13.7656 14.5382 14.1771 14.1224 14.6847 14.1224C15.1923 14.1224 15.6038 14.5382 15.6038 15.051V17.5272Z" fill="#2E1814" fill-opacity="0.62"/>
</svg>
