<svg width="25" height="24" viewBox="0 0 25 24" fill="none" xmlns="http://www.w3.org/2000/svg">
<path d="M20.2701 19.1228C20.0816 21.2939 18.3268 22.8864 16.1262 23.1258C13.6034 23.4001 10.7613 23.3274 8.21753 23.2606C5.83735 23.1985 3.28957 23.4544 1.66554 21.4393C0.802648 20.3683 0.689923 19.1877 0.60912 17.8714C0.451505 15.3097 0.476444 12.6481 0.60912 10.0921C0.652015 9.25949 0.629071 8.34353 0.828584 7.53032C1.25554 5.7866 2.87658 4.3579 4.72906 4.20088C4.86572 2.23521 6.5137 0.558373 8.50483 0.250146C9.257 0.133834 10.0311 0.142557 10.7912 0.105725C13.4368 -0.0231878 16.194 -0.0464502 18.8456 0.104756C21.6946 0.266623 23.9391 1.20294 24.2973 4.2697C24.5816 6.70838 24.5047 9.45528 24.4359 11.9104C24.404 13.0677 24.4349 14.3559 24.2374 15.4929C23.9082 17.382 22.2493 18.9483 20.2721 19.1228H20.2701ZM20.4107 17.348C20.731 17.3025 21.0402 17.1387 21.3066 16.9671C22.7241 16.0541 22.5415 14.5081 22.6114 13.0493C22.7371 10.4197 22.781 7.62434 22.5635 4.99665C22.357 2.49885 21.2417 1.9832 18.8416 1.8349C16.606 1.69629 14.3346 1.72731 12.1 1.78837C11.0855 1.81648 9.96826 1.79516 8.96471 1.92601C7.77462 2.08109 6.76608 2.89431 6.5536 4.06325C7.17109 4.00897 7.78659 4.03514 8.40508 4.01963C10.878 3.9576 13.6263 3.88878 16.0803 4.15436C18.4426 4.41024 20.0746 6.02408 20.317 8.31736C20.5554 10.5729 20.5045 13.0096 20.4556 15.2757L20.4107 17.3471V17.348ZM18.4436 19.3496C18.684 17.8075 18.655 16.244 18.676 14.6845C18.7019 12.8148 18.7309 10.915 18.5842 9.04528C18.2979 5.40471 15.787 5.82925 12.8013 5.7488C10.6107 5.68968 8.3941 5.6606 6.20345 5.79242C3.86716 5.93393 2.65013 6.39046 2.43466 8.86306C2.24014 11.0953 2.28104 13.4458 2.34289 15.6848C2.36184 16.3904 2.35386 17.097 2.38778 17.8017C2.49751 17.8317 2.46658 17.7735 2.49451 17.7435C3.44519 16.7064 4.85275 14.4819 6.11567 13.9411C7.31474 13.4273 8.77617 13.6357 9.73682 14.5032L11.3519 16.3003C12.3993 14.8347 14.6877 14.7998 15.824 16.1859L18.4436 19.3486V19.3496ZM7.29279 15.4047C6.69924 15.4715 6.43988 15.8117 6.0618 16.2101C4.92657 17.4062 3.98288 18.7758 2.92446 20.0348C2.8686 20.1579 3.13196 20.4584 3.22872 20.5573C4.02777 21.3783 5.06523 21.4209 6.15657 21.4878C8.39111 21.6264 10.6636 21.5963 12.8981 21.5343C13.9156 21.5062 15.0728 21.5314 16.0753 21.3918C16.3297 21.356 17.2345 21.1088 17.3482 20.8965C17.3901 20.819 17.2864 20.7317 17.2455 20.6736C16.6988 19.8865 15.8509 18.8834 15.2124 18.1457C14.8613 17.7396 14.2478 16.9235 13.6902 16.8925C12.925 16.8498 12.7335 17.5661 12.141 17.8433C9.72485 18.9706 9.31286 15.1788 7.2908 15.4047H7.29279Z" fill="#7E706D"/>
<path d="M12.5339 10.7164C14.7106 10.3839 15.0308 13.5234 12.9848 13.7018C10.9388 13.8801 10.6954 10.9965 12.5339 10.7164Z" fill="#7E706D"/>
</svg>
