<svg width="23" height="22" viewBox="0 0 23 22" fill="none" xmlns="http://www.w3.org/2000/svg">
<path d="M8.00006 2.51335e-07H7.85726C6.77347 -9.47579e-06 5.89932 -1.73226e-05 5.19144 0.0578186C4.46259 0.117368 3.8224 0.243181 3.23011 0.544968C2.2893 1.02434 1.5244 1.78924 1.04503 2.73005C0.743242 3.32234 0.617429 3.96253 0.55788 4.69138C0.500044 5.39925 0.500052 6.2734 0.500061 7.35719V7.5C0.500061 8.05229 0.947777 8.5 1.50006 8.5C2.05235 8.5 2.50006 8.05229 2.50006 7.5V7.4C2.50006 6.2634 2.50084 5.47108 2.55124 4.85424C2.60068 4.24907 2.69286 3.90138 2.82704 3.63803C3.11466 3.07354 3.5736 2.6146 4.13809 2.32698C4.40145 2.1928 4.74913 2.10062 5.3543 2.05118C5.97114 2.00078 6.76346 2 7.90006 2H8.00006C8.55235 2 9.00006 1.55229 9.00006 1C9.00006 0.447716 8.55235 2.51335e-07 8.00006 2.51335e-07Z" fill="#6B843F"/>
<path d="M8.00006 22H7.85726C6.77347 22 5.89932 22 5.19144 21.9422C4.46259 21.8826 3.8224 21.7568 3.23011 21.455C2.2893 20.9757 1.5244 20.2108 1.04503 19.27C0.743242 18.6777 0.617429 18.0375 0.55788 17.3086C0.500044 16.6007 0.500052 15.7266 0.500061 14.6428V14.5C0.500061 13.9477 0.947777 13.5 1.50006 13.5C2.05235 13.5 2.50006 13.9477 2.50006 14.5V14.6C2.50006 15.7366 2.50084 16.5289 2.55124 17.1458C2.60068 17.7509 2.69286 18.0986 2.82704 18.362C3.11466 18.9265 3.5736 19.3854 4.13809 19.673C4.40145 19.8072 4.74913 19.8994 5.3543 19.9488C5.97114 19.9992 6.76346 20 7.90006 20H8.00006C8.55235 20 9.00006 20.4477 9.00006 21C9.00006 21.5523 8.55235 22 8.00006 22Z" fill="#6B843F"/>
<path d="M15.1429 2.51335e-07H15.0001C14.4478 2.51335e-07 14.0001 0.447716 14.0001 1C14.0001 1.55229 14.4478 2 15.0001 2H15.1001C16.2367 2 17.029 2.00078 17.6458 2.05118C18.251 2.10062 18.5987 2.1928 18.862 2.32698C19.4265 2.6146 19.8855 3.07354 20.1731 3.63803C20.3073 3.90138 20.3994 4.24907 20.4489 4.85424C20.4993 5.47108 20.5001 6.2634 20.5001 7.4V7.5C20.5001 8.05229 20.9478 8.5 21.5001 8.5C22.0523 8.5 22.5001 8.05229 22.5001 7.5V7.35719C22.5001 6.27341 22.5001 5.39926 22.4422 4.69138C22.3827 3.96253 22.2569 3.32234 21.9551 2.73005C21.4757 1.78924 20.7108 1.02434 19.77 0.544968C19.1777 0.243181 18.5375 0.117368 17.8087 0.0578186C17.1008 -1.73226e-05 16.2266 -9.47579e-06 15.1429 2.51335e-07Z" fill="#6B843F"/>
<path d="M15.0001 22H15.1429C16.2267 22 17.1008 22 17.8087 21.9422C18.5375 21.8826 19.1777 21.7568 19.77 21.455C20.7108 20.9757 21.4757 20.2108 21.9551 19.27C22.2569 18.6777 22.3827 18.0375 22.4422 17.3086C22.5001 16.6007 22.5001 15.7266 22.5001 14.6428V14.5C22.5001 13.9477 22.0523 13.5 21.5001 13.5C20.9478 13.5 20.5001 13.9477 20.5001 14.5V14.6C20.5001 15.7366 20.4993 16.5289 20.4489 17.1458C20.3994 17.7509 20.3073 18.0986 20.1731 18.362C19.8855 18.9265 19.4265 19.3854 18.862 19.673C18.5987 19.8072 18.251 19.8994 17.6458 19.9488C17.029 19.9992 16.2367 20 15.1001 20H15.0001C14.4478 20 14.0001 20.4477 14.0001 21C14.0001 21.5523 14.4478 22 15.0001 22Z" fill="#6B843F"/>
</svg>
