<svg width="31" height="17" viewBox="0 0 31 17" fill="none" xmlns="http://www.w3.org/2000/svg">
<g clip-path="url(#clip0_101_1043)">
<path d="M22.3319 17H8.63592C7.50407 16.525 8.19432 14.9514 7.96326 13.9896C4.16481 11.8563 1.52459 8.25066 0.752822 3.90886L0.500061 2.06814V0.710702C0.6672 0.319224 0.948698 0.0112528 1.40496 0H29.5629C30.7874 0.087061 30.4901 1.69266 30.4092 2.56919C29.9652 7.35991 27.2071 11.6129 23.0046 13.8711C22.7642 14.8566 23.4808 16.5102 22.3325 17H22.3319ZM28.5947 1.89106H2.4899C2.6412 5.80407 4.54424 9.46004 7.76328 11.6537C8.25531 11.989 9.19247 12.384 9.56897 12.7251C9.65166 12.8003 9.86513 13.1054 9.86513 13.1936V15.1119H21.1033V13.0757C21.1033 13.0538 21.2798 12.7393 21.3121 12.6961C21.5432 12.3887 22.6744 11.8711 23.0885 11.5951C26.3908 9.3943 28.2909 5.86626 28.5958 1.89165L28.5947 1.89106Z" fill="#2E1814" fill-opacity="0.67"/>
</g>
<defs>
<clipPath id="clip0_101_1043">
<rect width="30" height="17" fill="white" transform="translate(0.500061)"/>
</clipPath>
</defs>
</svg>
