<svg width="16" height="15" viewBox="0 0 16 15" fill="none" xmlns="http://www.w3.org/2000/svg">
    <path fill-rule="evenodd" clip-rule="evenodd" d="M7.40389 14.1926L8.00019 13.0001L8.59646 14.1926C8.22108 14.3803 7.77925 14.3803 7.40389 14.1926ZM7.1867 2.89828C5.51319 0.983005 2.41442 1.15574 2.04198 4.02557C1.90505 5.08076 1.96143 6.10689 2.33359 7.00007C4.0003 11.0001 8.00019 13.0001 8.00019 13.0001C7.40389 14.1926 7.4031 14.1922 7.4031 14.1922L7.40223 14.1918L7.4002 14.1908L7.39503 14.1882L7.38035 14.1807C7.36866 14.1747 7.35319 14.1667 7.33412 14.1567C7.29599 14.1366 7.24345 14.1084 7.1781 14.0722C7.04746 13.9997 6.86511 13.8945 6.6438 13.7565C6.20212 13.4812 5.59999 13.072 4.9418 12.5273C3.63629 11.4468 2.04834 9.78209 1.10283 7.5129C0.610775 6.332 0.564524 5.05001 0.719739 3.85398C0.869825 2.69747 1.37464 1.74319 2.17832 1.10533C2.97096 0.476223 3.94256 0.243788 4.8741 0.312593C6.00742 0.396303 7.13358 0.922978 8.00019 1.81446C8.86681 0.922957 9.993 0.396267 11.1263 0.312553C12.0579 0.243744 13.0295 0.476177 13.8222 1.10528C14.6259 1.74314 15.1307 2.69742 15.2808 3.85394C15.436 5.04998 15.3898 6.33198 14.8977 7.51289C13.9522 9.7821 12.3642 11.4468 11.0587 12.5273C10.4004 13.072 9.79828 13.4812 9.35658 13.7566C9.13526 13.8945 8.9529 13.9997 8.82226 14.0722C8.7569 14.1085 8.70436 14.1366 8.66623 14.1567C8.64716 14.1667 8.63168 14.1747 8.61999 14.1807L8.60531 14.1882L8.60015 14.1908L8.59812 14.1918L8.59724 14.1923C8.59724 14.1923 8.59646 14.1926 8.00019 13.0001C8.00019 13.0001 12.0003 11.0001 13.667 7.00007C14.0391 6.10689 14.0955 5.08074 13.9586 4.02555C13.5861 1.15568 10.4872 0.982959 8.81368 2.89829C8.77867 2.93835 8.74428 2.97934 8.71056 3.02123C8.40923 3.39552 7.59115 3.39551 7.28982 3.02123C7.25609 2.97934 7.22171 2.93835 7.1867 2.89828Z" fill="#617E3F"/>
    </svg>