<svg width="24" height="24" viewBox="0 0 24 24" fill="none" xmlns="http://www.w3.org/2000/svg">
<path d="M12.0002 0C13.1046 9.4313e-05 14.0002 0.895489 14.0002 2C14.0002 2.0963 13.9899 2.19054 13.9767 2.2832C16.4621 3.00991 18.4133 5.07446 18.9181 7.72461L19.9386 13.085L19.9523 13.1309C19.9581 13.1457 19.9654 13.1602 19.9738 13.1738L21.9757 16.4277L22.0832 16.6162C23.1153 18.5844 21.6947 20.9999 19.4211 21H15.0002L14.9962 21.1543C14.9159 22.7394 13.6052 23.9999 12.0002 24C10.3951 24 9.08437 22.7394 9.00406 21.1543L9.00016 21H4.57926C2.23231 21 0.794537 18.4265 2.02457 16.4277L4.02652 13.1738L4.04801 13.1309C4.05377 13.116 4.05868 13.1007 4.06168 13.085L5.08219 7.72461C5.58687 5.0751 7.53708 3.01134 10.0216 2.28418C10.0084 2.19128 10.0002 2.09655 10.0002 2C10.0002 0.895431 10.8956 0 12.0002 0ZM11.005 21.1025C11.0564 21.6067 11.4825 22 12.0002 22C12.5524 21.9999 13.0002 21.5522 13.0002 21H11.0002L11.005 21.1025ZM12.0002 4C9.57927 4 7.50011 5.72054 7.04703 8.09863L6.02555 13.459C5.98696 13.6615 5.92161 13.8579 5.83023 14.042L5.72965 14.2217L3.72769 17.4756C3.31769 18.1418 3.79695 19 4.57926 19H19.4211C20.1545 18.9999 20.6216 18.2458 20.339 17.6025L20.2726 17.4756L18.2707 14.2217C18.1626 14.046 18.0783 13.8569 18.0216 13.6592L17.9748 13.459L16.9533 8.09863C16.5002 5.72058 14.421 4.00008 12.0002 4Z" fill="#2E1914" fill-opacity="0.62"/>
</svg>
