<svg width="25" height="24" viewBox="0 0 25 24" fill="none" xmlns="http://www.w3.org/2000/svg">
<path d="M9.25876 1C8.45382 0.999989 7.78942 0.99998 7.24824 1.0442C6.68614 1.09012 6.16944 1.18869 5.6841 1.43598C4.93145 1.81947 4.31953 2.43139 3.93604 3.18404C3.68875 3.66938 3.59018 4.18608 3.54426 4.74818C3.50004 5.28936 3.50005 5.95371 3.50006 6.75865V17.2413C3.50005 18.0463 3.50004 18.7106 3.54426 19.2518C3.59018 19.8139 3.68875 20.3306 3.93604 20.816C4.31953 21.5686 4.93145 22.1805 5.6841 22.564C6.16944 22.8113 6.68614 22.9099 7.24824 22.9558C7.78943 23 8.45378 23 9.25874 23H13.6011C13.0152 22.4259 12.5298 21.7496 12.1737 21H9.30006C8.44348 21 7.86119 20.9992 7.4111 20.9624C6.97269 20.9266 6.74848 20.8617 6.59208 20.782C6.21576 20.5903 5.9098 20.2843 5.71805 19.908C5.63836 19.7516 5.57343 19.5274 5.53761 19.089C5.50084 18.6389 5.50006 18.0566 5.50006 17.2V6.8C5.50006 5.94342 5.50084 5.36113 5.53761 4.91104C5.57343 4.47262 5.63836 4.24842 5.71805 4.09202C5.9098 3.7157 6.21576 3.40974 6.59208 3.21799C6.74848 3.1383 6.97269 3.07337 7.4111 3.03755C7.86119 3.00078 8.44348 3 9.30006 3H15.7001C16.5566 3 17.1389 3.00078 17.589 3.03755C18.0274 3.07337 18.2516 3.1383 18.408 3.21799C18.7844 3.40974 19.0903 3.7157 19.2821 4.09202C19.3618 4.24842 19.4267 4.47262 19.4625 4.91104C19.4993 5.36113 19.5001 5.94342 19.5001 6.8V11.0709C20.2062 11.1719 20.8784 11.3783 21.5001 11.6736V6.75868C21.5001 5.95372 21.5001 5.28937 21.4559 4.74818C21.4099 4.18608 21.3114 3.66938 21.0641 3.18404C20.6806 2.43139 20.0687 1.81947 19.316 1.43598C18.8307 1.18869 18.314 1.09012 17.7519 1.0442C17.2107 0.99998 16.5464 0.999989 15.7414 1H9.25876Z" fill="#2E1814" fill-opacity="0.62"/>
<path d="M8.50006 6C7.94778 6 7.50006 6.44772 7.50006 7C7.50006 7.55229 7.94778 8 8.50006 8H16.5001C17.0523 8 17.5001 7.55229 17.5001 7C17.5001 6.44772 17.0523 6 16.5001 6H8.50006Z" fill="#2E1814" fill-opacity="0.62"/>
<path d="M8.50006 10C7.94778 10 7.50006 10.4477 7.50006 11C7.50006 11.5523 7.94778 12 8.50006 12H12.5001C13.0523 12 13.5001 11.5523 13.5001 11C13.5001 10.4477 13.0523 10 12.5001 10H8.50006Z" fill="#2E1814" fill-opacity="0.62"/>
<path d="M8.50006 14C7.94778 14 7.50006 14.4477 7.50006 15C7.50006 15.5523 7.94778 16 8.50006 16H9.50006C10.0523 16 10.5001 15.5523 10.5001 15C10.5001 14.4477 10.0523 14 9.50006 14H8.50006Z" fill="#2E1814" fill-opacity="0.62"/>
<path fill-rule="evenodd" clip-rule="evenodd" d="M18.5001 23C21.2615 23 23.5001 20.7614 23.5001 18C23.5001 15.2386 21.2615 13 18.5001 13C15.7386 13 13.5001 15.2386 13.5001 18C13.5001 20.7614 15.7386 23 18.5001 23ZM20.6465 15.5191C21.078 15.7657 21.228 16.3155 20.9814 16.7471L18.9814 20.2471C18.8287 20.5142 18.5502 20.6848 18.2429 20.6995C17.9356 20.7142 17.6421 20.5709 17.4647 20.3196L15.9647 18.1946C15.678 17.7885 15.7748 17.2269 16.1809 16.9403C16.587 16.6536 17.1486 16.7505 17.4352 17.1565L18.1199 18.1266L19.4185 15.854C19.6651 15.4225 20.2149 15.2725 20.6465 15.5191Z" fill="#2E1814" fill-opacity="0.62"/>
</svg>
