<svg width="28" height="17" viewBox="0 0 28 17" fill="none" xmlns="http://www.w3.org/2000/svg">
<g clip-path="url(#clip0_221_602)">
<path d="M20.2422 16.1903H7.91717C6.89861 15.7628 7.51977 14.3467 7.31184 13.4812C3.89361 11.5615 1.51768 8.31674 0.823163 4.40956L0.595703 2.75309V1.53153C0.746112 1.17924 0.999431 0.902094 1.41002 0.891968H26.7494C27.8513 0.970314 27.5837 2.41519 27.5109 3.20398C27.1114 7.51516 24.6294 11.3424 20.8476 13.3746C20.6312 14.2615 21.2761 15.7495 20.2428 16.1903H20.2422ZM25.8781 2.59373H2.38636C2.52252 6.11505 4.23506 9.40506 7.13188 11.3792C7.57466 11.6808 8.418 12.0363 8.75682 12.3433C8.83123 12.411 9.02333 12.6855 9.02333 12.7649V14.4912H19.1366V12.6588C19.1366 12.6391 19.2954 12.3561 19.3245 12.3172C19.5324 12.0406 20.5504 11.5748 20.923 11.3264C23.8948 9.3459 25.6047 6.17101 25.8791 2.59427L25.8781 2.59373Z" fill="#F2AE28"/>
</g>
<defs>
<clipPath id="clip0_221_602">
<rect width="26.997" height="15.2983" fill="white" transform="translate(0.595703 0.891968)"/>
</clipPath>
</defs>
</svg>
