<svg width="22" height="23" viewBox="0 0 22 23" fill="none" xmlns="http://www.w3.org/2000/svg">
    <path 
      fill-rule="evenodd" 
      clip-rule="evenodd" 
      d="M8.68347 0.958252C3.92002 0.958252 0.0584717 4.8198 0.0584717 9.58325C0.0584717 14.3467 3.92002 18.2083 8.68347 18.2083C10.7199 18.2083 12.5916 17.5025 14.0671 16.3222L19.5058 21.7609C19.8801 22.1351 20.4869 22.1351 20.8611 21.7609C21.2354 21.3866 21.2354 20.7799 20.8611 20.4056L15.4224 14.9669C16.6027 13.4914 17.3085 11.6197 17.3085 9.58325C17.3085 4.8198 13.4469 0.958252 8.68347 0.958252ZM1.97514 9.58325C1.97514 5.87834 4.97856 2.87492 8.68347 2.87492C12.3884 2.87492 15.3918 5.87834 15.3918 9.58325C15.3918 13.2882 12.3884 16.2916 8.68347 16.2916C4.97856 16.2916 1.97514 13.2882 1.97514 9.58325Z" 
      fill="none" 
      stroke="#6B843F" 
      stroke-width="1.5"
    />
  </svg>
  